<svg width="3132" height="3719" viewBox="0 0 3132 3719" fill="none" xmlns="http://www.w3.org/2000/svg">
<rect x="978.684" width="195.737" height="195.737" rx="97.8684" fill="#CF2E24"/>
<rect x="1174.42" width="195.737" height="195.737" rx="97.8684" fill="#CB2927"/>
<rect x="978.684" y="195.737" width="195.737" height="195.737" rx="97.8684" fill="#D63231"/>
<rect x="1174.42" y="195.737" width="195.737" height="195.737" rx="97.8684" fill="#CE302D"/>
<rect x="1370.16" y="195.737" width="195.737" height="195.737" rx="97.8684" fill="#CB2927"/>
<rect x="1565.89" y="195.737" width="195.737" height="195.737" rx="97.8684" fill="#E82127"/>
<rect x="1174.42" y="391.474" width="195.737" height="195.737" rx="97.8684" fill="#D23732"/>
<rect x="1370.16" y="391.474" width="195.737" height="195.737" rx="97.8684" fill="#CB302C"/>
<rect x="1565.89" y="391.474" width="195.737" height="195.737" rx="97.8684" fill="#CA2F2A"/>
<rect x="1761.63" y="391.474" width="195.737" height="195.737" rx="97.8684" fill="#EA4335"/>
<rect x="1174.42" y="587.211" width="195.737" height="195.737" rx="97.8684" fill="#CC2D29"/>
<rect x="1370.16" y="587.211" width="195.737" height="195.737" rx="97.8684" fill="#D43532"/>
<rect x="1565.89" y="587.211" width="195.737" height="195.737" rx="97.8684" fill="#CF3430"/>
<rect x="1761.63" y="587.211" width="195.737" height="195.737" rx="97.8684" fill="#D53833"/>
<rect x="978.684" y="782.947" width="195.737" height="195.737" rx="97.8684" fill="#DE3340"/>
<rect x="1174.42" y="782.947" width="195.737" height="195.737" rx="97.8684" fill="#CD2A2B"/>
<rect x="1370.16" y="782.947" width="195.737" height="195.737" rx="97.8684" fill="#D63231"/>
<rect x="1565.89" y="782.947" width="195.737" height="195.737" rx="97.8684" fill="#D0312E"/>
<rect x="1761.63" y="782.947" width="195.737" height="195.737" rx="97.8684" fill="#CC2D29"/>
<rect x="1957.37" y="782.947" width="195.737" height="195.737" rx="97.8684" fill="#CB3127"/>
<rect y="978.684" width="195.737" height="195.737" rx="97.8684" fill="#CC332D"/>
<rect x="195.736" y="978.684" width="195.737" height="195.737" rx="97.8684" fill="#DE3340"/>
<rect x="978.684" y="978.684" width="195.737" height="195.737" rx="97.8684" fill="#CB2927"/>
<rect x="1174.42" y="978.684" width="195.737" height="195.737" rx="97.8684" fill="#D1322C"/>
<rect x="1370.16" y="978.684" width="195.737" height="195.737" rx="97.8684" fill="#E98015"/>
<rect x="1565.89" y="978.684" width="195.737" height="195.737" rx="97.8684" fill="#CF322D"/>
<rect x="1761.63" y="978.684" width="195.737" height="195.737" rx="97.8684" fill="#CB302B"/>
<rect x="1957.37" y="978.684" width="195.737" height="195.737" rx="97.8684" fill="#D23530"/>
<rect x="195.736" y="1174.42" width="195.737" height="195.737" rx="97.8684" fill="#D12F2D"/>
<rect x="391.474" y="1174.42" width="195.737" height="195.737" rx="97.8684" fill="#CC332D"/>
<rect x="978.684" y="1174.42" width="195.737" height="195.737" rx="97.8684" fill="#CC2F2A"/>
<rect x="1174.42" y="1174.42" width="195.737" height="195.737" rx="97.8684" fill="#C92A27"/>
<rect x="1370.16" y="1174.42" width="195.737" height="195.737" rx="97.8684" fill="#EC831A"/>
<rect x="1565.89" y="1174.42" width="195.737" height="195.737" rx="97.8684" fill="#F28528"/>
<rect x="1761.63" y="1174.42" width="195.737" height="195.737" rx="97.8684" fill="#CF322D"/>
<rect x="1957.37" y="1174.42" width="195.737" height="195.737" rx="97.8684" fill="#D2302E"/>
<rect x="195.736" y="1370.16" width="195.737" height="195.737" rx="97.8684" fill="#D43532"/>
<rect x="391.474" y="1370.16" width="195.737" height="195.737" rx="97.8684" fill="#D13832"/>
<rect x="782.947" y="1370.16" width="195.737" height="195.737" rx="97.8684" fill="#D12F2D"/>
<rect x="978.684" y="1370.16" width="195.737" height="195.737" rx="97.8684" fill="#D33532"/>
<rect x="1174.42" y="1370.16" width="195.737" height="195.737" rx="97.8684" fill="#D13327"/>
<rect x="1370.16" y="1370.16" width="195.737" height="195.737" rx="97.8684" fill="#EA821F"/>
<rect x="1565.89" y="1370.16" width="195.737" height="195.737" rx="97.8684" fill="#E77C14"/>
<rect x="1761.63" y="1370.16" width="195.737" height="195.737" rx="97.8684" fill="#D22C2C"/>
<rect x="1957.37" y="1370.16" width="195.737" height="195.737" rx="97.8684" fill="#D53833"/>
<rect x="2544.58" y="1370.16" width="195.737" height="195.737" rx="97.8684" fill="#B63724"/>
<rect x="195.736" y="1565.89" width="195.737" height="195.737" rx="97.8684" fill="#D1322F"/>
<rect x="391.474" y="1565.89" width="195.737" height="195.737" rx="97.8684" fill="#CD342E"/>
<rect x="587.21" y="1565.89" width="195.737" height="195.737" rx="97.8684" fill="#D33631"/>
<rect x="782.947" y="1565.89" width="195.737" height="195.737" rx="97.8684" fill="#CF312E"/>
<rect x="978.684" y="1565.89" width="195.737" height="195.737" rx="97.8684" fill="#D13330"/>
<rect x="1174.42" y="1565.89" width="195.737" height="195.737" rx="97.8684" fill="#F1881F"/>
<rect x="1370.16" y="1565.89" width="195.737" height="195.737" rx="97.8684" fill="#E7801B"/>
<rect x="1565.89" y="1565.89" width="195.737" height="195.737" rx="97.8684" fill="#F18C22"/>
<rect x="1761.63" y="1565.89" width="195.737" height="195.737" rx="97.8684" fill="#F48825"/>
<rect x="1957.37" y="1565.89" width="195.737" height="195.737" rx="97.8684" fill="#CA2D28"/>
<rect x="2153.1" y="1565.89" width="195.737" height="195.737" rx="97.8684" fill="#EA4335"/>
<rect x="2544.58" y="1565.89" width="195.737" height="195.737" rx="97.8684" fill="#D53B33"/>
<rect x="2740.32" y="1565.89" width="195.737" height="195.737" rx="97.8684" fill="#DE3340"/>
<rect x="195.736" y="1761.63" width="195.737" height="195.737" rx="97.8684" fill="#CE302D"/>
<rect x="391.474" y="1761.63" width="195.737" height="195.737" rx="97.8684" fill="#CC312C"/>
<rect x="587.21" y="1761.63" width="195.737" height="195.737" rx="97.8684" fill="#CC332D"/>
<rect x="782.947" y="1761.63" width="195.737" height="195.737" rx="97.8684" fill="#CD3329"/>
<rect x="978.684" y="1761.63" width="195.737" height="195.737" rx="97.8684" fill="#F5832D"/>
<rect x="1174.42" y="1761.63" width="195.737" height="195.737" rx="97.8684" fill="#EF861D"/>
<rect x="1370.16" y="1761.63" width="195.737" height="195.737" rx="97.8684" fill="#F2891E"/>
<rect x="1565.89" y="1761.63" width="195.737" height="195.737" rx="97.8684" fill="#E9821B"/>
<rect x="1761.63" y="1761.63" width="195.737" height="195.737" rx="97.8684" fill="#F28621"/>
<rect x="1957.37" y="1761.63" width="195.737" height="195.737" rx="97.8684" fill="#D1342F"/>
<rect x="2153.1" y="1761.63" width="195.737" height="195.737" rx="97.8684" fill="#EA4335"/>
<rect x="2348.84" y="1761.63" width="195.737" height="195.737" rx="97.8684" fill="#D3312E"/>
<rect x="2544.58" y="1761.63" width="195.737" height="195.737" rx="97.8684" fill="#CD2F2C"/>
<rect x="2740.32" y="1761.63" width="195.737" height="195.737" rx="97.8684" fill="#CC2F2A"/>
<rect y="1957.37" width="195.737" height="195.737" rx="97.8684" fill="#D7342D"/>
<rect x="195.736" y="1957.37" width="195.737" height="195.737" rx="97.8684" fill="#CF3631"/>
<rect x="391.474" y="1957.37" width="195.737" height="195.737" rx="97.8684" fill="#C92B28"/>
<rect x="587.21" y="1957.37" width="195.737" height="195.737" rx="97.8684" fill="#D63932"/>
<rect x="782.947" y="1957.37" width="195.737" height="195.737" rx="97.8684" fill="#C72A25"/>
<rect x="978.684" y="1957.37" width="195.737" height="195.737" rx="97.8684" fill="#E8801D"/>
<rect x="1174.42" y="1957.37" width="195.737" height="195.737" rx="97.8684" fill="#E67914"/>
<rect x="1370.16" y="1957.37" width="195.737" height="195.737" rx="97.8684" fill="#F4CE3D"/>
<rect x="1565.89" y="1957.37" width="195.737" height="195.737" rx="97.8684" fill="#E97E14"/>
<rect x="1761.63" y="1957.37" width="195.737" height="195.737" rx="97.8684" fill="#ED831F"/>
<rect x="1957.37" y="1957.37" width="195.737" height="195.737" rx="97.8684" fill="#CF302D"/>
<rect x="2153.1" y="1957.37" width="195.737" height="195.737" rx="97.8684" fill="#CD3029"/>
<rect x="2348.84" y="1957.37" width="195.737" height="195.737" rx="97.8684" fill="#C22820"/>
<rect x="2544.58" y="1957.37" width="195.737" height="195.737" rx="97.8684" fill="#CE2C2A"/>
<rect x="2740.32" y="1957.37" width="195.737" height="195.737" rx="97.8684" fill="#C9302A"/>
<rect y="2153.1" width="195.737" height="195.737" rx="97.8684" fill="#CE332F"/>
<rect x="195.736" y="2153.1" width="195.737" height="195.737" rx="97.8684" fill="#D03731"/>
<rect x="391.474" y="2153.1" width="195.737" height="195.737" rx="97.8684" fill="#EE851A"/>
<rect x="587.21" y="2153.1" width="195.737" height="195.737" rx="97.8684" fill="#C83022"/>
<rect x="782.947" y="2153.1" width="195.737" height="195.737" rx="97.8684" fill="#EE801F"/>
<rect x="978.684" y="2153.1" width="195.737" height="195.737" rx="97.8684" fill="#ED8621"/>
<rect x="1174.42" y="2153.1" width="195.737" height="195.737" rx="97.8684" fill="#F6C634"/>
<rect x="1370.16" y="2153.1" width="195.737" height="195.737" rx="97.8684" fill="#F8CE3E"/>
<rect x="1565.89" y="2153.1" width="195.737" height="195.737" rx="97.8684" fill="#EB8519"/>
<rect x="1761.63" y="2153.1" width="195.737" height="195.737" rx="97.8684" fill="#EE8722"/>
<rect x="1957.37" y="2153.1" width="195.737" height="195.737" rx="97.8684" fill="#CB2B2B"/>
<rect x="2153.1" y="2153.1" width="195.737" height="195.737" rx="97.8684" fill="#CD2F26"/>
<rect x="2348.84" y="2153.1" width="195.737" height="195.737" rx="97.8684" fill="#EB8520"/>
<rect x="2544.58" y="2153.1" width="195.737" height="195.737" rx="97.8684" fill="#CD2826"/>
<rect x="2740.32" y="2153.1" width="195.737" height="195.737" rx="97.8684" fill="#D23733"/>
<rect x="2936.05" y="2153.1" width="195.737" height="195.737" rx="97.8684" fill="#E82127"/>
<rect y="2348.84" width="195.737" height="195.737" rx="97.8684" fill="#CF312E"/>
<rect x="195.736" y="2348.84" width="195.737" height="195.737" rx="97.8684" fill="#D0312D"/>
<rect x="391.474" y="2348.84" width="195.737" height="195.737" rx="97.8684" fill="#ED861F"/>
<rect x="587.21" y="2348.84" width="195.737" height="195.737" rx="97.8684" fill="#F08622"/>
<rect x="782.947" y="2348.84" width="195.737" height="195.737" rx="97.8684" fill="#EC871F"/>
<rect x="978.684" y="2348.84" width="195.737" height="195.737" rx="97.8684" fill="#EB841D"/>
<rect x="1174.42" y="2348.84" width="195.737" height="195.737" rx="97.8684" fill="#F5CC3C"/>
<rect x="1370.16" y="2348.84" width="195.737" height="195.737" rx="97.8684" fill="#FAD040"/>
<rect x="1565.89" y="2348.84" width="195.737" height="195.737" rx="97.8684" fill="#EECA38"/>
<rect x="1761.63" y="2348.84" width="195.737" height="195.737" rx="97.8684" fill="#EE851C"/>
<rect x="1957.37" y="2348.84" width="195.737" height="195.737" rx="97.8684" fill="#D23530"/>
<rect x="2153.1" y="2348.84" width="195.737" height="195.737" rx="97.8684" fill="#EB841F"/>
<rect x="2348.84" y="2348.84" width="195.737" height="195.737" rx="97.8684" fill="#E8821D"/>
<rect x="2544.58" y="2348.84" width="195.737" height="195.737" rx="97.8684" fill="#C63216"/>
<rect x="2740.32" y="2348.84" width="195.737" height="195.737" rx="97.8684" fill="#D43730"/>
<rect x="2936.05" y="2348.84" width="195.737" height="195.737" rx="97.8684" fill="#B5341E"/>
<rect y="2544.58" width="195.737" height="195.737" rx="97.8684" fill="#CA2F2B"/>
<rect x="195.736" y="2544.58" width="195.737" height="195.737" rx="97.8684" fill="#D12C2A"/>
<rect x="391.474" y="2544.58" width="195.737" height="195.737" rx="97.8684" fill="#E87E18"/>
<rect x="587.21" y="2544.58" width="195.737" height="195.737" rx="97.8684" fill="#EC8421"/>
<rect x="782.947" y="2544.58" width="195.737" height="195.737" rx="97.8684" fill="#EE831B"/>
<rect x="978.684" y="2544.58" width="195.737" height="195.737" rx="97.8684" fill="#E48217"/>
<rect x="1174.42" y="2544.58" width="195.737" height="195.737" rx="97.8684" fill="#F1CB3A"/>
<rect x="1370.16" y="2544.58" width="195.737" height="195.737" rx="97.8684" fill="#F5CC40"/>
<rect x="1565.89" y="2544.58" width="195.737" height="195.737" rx="97.8684" fill="#F2CA35"/>
<rect x="1761.63" y="2544.58" width="195.737" height="195.737" rx="97.8684" fill="#F0851B"/>
<rect x="1957.37" y="2544.58" width="195.737" height="195.737" rx="97.8684" fill="#ED8A22"/>
<rect x="2153.1" y="2544.58" width="195.737" height="195.737" rx="97.8684" fill="#ED861F"/>
<rect x="2348.84" y="2544.58" width="195.737" height="195.737" rx="97.8684" fill="#E8821D"/>
<rect x="2544.58" y="2544.58" width="195.737" height="195.737" rx="97.8684" fill="#DD5428"/>
<rect x="2740.32" y="2544.58" width="195.737" height="195.737" rx="97.8684" fill="#C92E29"/>
<rect x="2936.05" y="2544.58" width="195.737" height="195.737" rx="97.8684" fill="#DE3340"/>
<rect y="2740.32" width="195.737" height="195.737" rx="97.8684" fill="#D22E2C"/>
<rect x="195.736" y="2740.32" width="195.737" height="195.737" rx="97.8684" fill="#D2302E"/>
<rect x="391.474" y="2740.32" width="195.737" height="195.737" rx="97.8684" fill="#EC801B"/>
<rect x="587.21" y="2740.32" width="195.737" height="195.737" rx="97.8684" fill="#E97F19"/>
<rect x="782.947" y="2740.32" width="195.737" height="195.737" rx="97.8684" fill="#FCCE3D"/>
<rect x="978.684" y="2740.32" width="195.737" height="195.737" rx="97.8684" fill="#F2CB42"/>
<rect x="1174.42" y="2740.32" width="195.737" height="195.737" rx="97.8684" fill="#F2C93B"/>
<rect x="1370.16" y="2740.32" width="195.737" height="195.737" rx="97.8684" fill="#F6C93A"/>
<rect x="1565.89" y="2740.32" width="195.737" height="195.737" rx="97.8684" fill="#F1CA3E"/>
<rect x="1761.63" y="2740.32" width="195.737" height="195.737" rx="97.8684" fill="#FCD549"/>
<rect x="1957.37" y="2740.32" width="195.737" height="195.737" rx="97.8684" fill="#EC821C"/>
<rect x="2153.1" y="2740.32" width="195.737" height="195.737" rx="97.8684" fill="#EF8A20"/>
<rect x="2348.84" y="2740.32" width="195.737" height="195.737" rx="97.8684" fill="#E5821A"/>
<rect x="2544.58" y="2740.32" width="195.737" height="195.737" rx="97.8684" fill="#CA2826"/>
<rect x="2740.32" y="2740.32" width="195.737" height="195.737" rx="97.8684" fill="#D53831"/>
<rect x="195.736" y="2936.05" width="195.737" height="195.737" rx="97.8684" fill="#C82925"/>
<rect x="391.474" y="2936.05" width="195.737" height="195.737" rx="97.8684" fill="#C73319"/>
<rect x="587.21" y="2936.05" width="195.737" height="195.737" rx="97.8684" fill="#F08422"/>
<rect x="782.947" y="2936.05" width="195.737" height="195.737" rx="97.8684" fill="#F3CB38"/>
<rect x="978.684" y="2936.05" width="195.737" height="195.737" rx="97.8684" fill="#F1C838"/>
<rect x="1174.42" y="2936.05" width="195.737" height="195.737" rx="97.8684" fill="#F8CD40"/>
<rect x="1370.16" y="2936.05" width="195.737" height="195.737" rx="97.8684" fill="#F5CC3E"/>
<rect x="1565.89" y="2936.05" width="195.737" height="195.737" rx="97.8684" fill="#F6CE3B"/>
<rect x="1761.63" y="2936.05" width="195.737" height="195.737" rx="97.8684" fill="#F9CF3F"/>
<rect x="1957.37" y="2936.05" width="195.737" height="195.737" rx="97.8684" fill="#F0C93D"/>
<rect x="2153.1" y="2936.05" width="195.737" height="195.737" rx="97.8684" fill="#EE7F16"/>
<rect x="2348.84" y="2936.05" width="195.737" height="195.737" rx="97.8684" fill="#E87F16"/>
<rect x="2544.58" y="2936.05" width="195.737" height="195.737" rx="97.8684" fill="#D12F2A"/>
<rect x="2740.32" y="2936.05" width="195.737" height="195.737" rx="97.8684" fill="#CA2B28"/>
<rect x="195.736" y="3131.79" width="195.737" height="195.737" rx="97.8684" fill="#DE3340"/>
<rect x="391.474" y="3131.79" width="195.737" height="195.737" rx="97.8684" fill="#CA3028"/>
<rect x="587.21" y="3131.79" width="195.737" height="195.737" rx="97.8684" fill="#FA7D3B"/>
<rect x="782.947" y="3131.79" width="195.737" height="195.737" rx="97.8684" fill="#EF841A"/>
<rect x="978.684" y="3131.79" width="195.737" height="195.737" rx="97.8684" fill="#F6CC3C"/>
<rect x="1174.42" y="3131.79" width="195.737" height="195.737" rx="97.8684" fill="#F6CD41"/>
<rect x="1370.16" y="3131.79" width="195.737" height="195.737" rx="97.8684" fill="#F4C93C"/>
<rect x="1565.89" y="3131.79" width="195.737" height="195.737" rx="97.8684" fill="#F5CC40"/>
<rect x="1761.63" y="3131.79" width="195.737" height="195.737" rx="97.8684" fill="#F8D03D"/>
<rect x="1957.37" y="3131.79" width="195.737" height="195.737" rx="97.8684" fill="#F1C933"/>
<rect x="2153.1" y="3131.79" width="195.737" height="195.737" rx="97.8684" fill="#EF841C"/>
<rect x="2348.84" y="3131.79" width="195.737" height="195.737" rx="97.8684" fill="#D4302F"/>
<rect x="2544.58" y="3131.79" width="195.737" height="195.737" rx="97.8684" fill="#CF2C2D"/>
<rect x="587.21" y="3327.53" width="195.737" height="195.737" rx="97.8684" fill="#D4302F"/>
<rect x="782.947" y="3327.53" width="195.737" height="195.737" rx="97.8684" fill="#CD3329"/>
<rect x="978.684" y="3327.53" width="195.737" height="195.737" rx="97.8684" fill="#EE881C"/>
<rect x="1174.42" y="3327.53" width="195.737" height="195.737" rx="97.8684" fill="#F5CD37"/>
<rect x="1370.16" y="3327.53" width="195.737" height="195.737" rx="97.8684" fill="#F5CB37"/>
<rect x="1565.89" y="3327.53" width="195.737" height="195.737" rx="97.8684" fill="#EECE3B"/>
<rect x="1761.63" y="3327.53" width="195.737" height="195.737" rx="97.8684" fill="#DD9620"/>
<rect x="1957.37" y="3327.53" width="195.737" height="195.737" rx="97.8684" fill="#F2712D"/>
<rect x="2153.1" y="3327.53" width="195.737" height="195.737" rx="97.8684" fill="#D4322F"/>
<rect x="2348.84" y="3327.53" width="195.737" height="195.737" rx="97.8684" fill="#E82127"/>
<rect x="978.684" y="3523.26" width="195.737" height="195.737" rx="97.8684" fill="#D83435"/>
<rect x="1174.42" y="3523.26" width="195.737" height="195.737" rx="97.8684" fill="#DE3340"/>
<rect x="1370.16" y="3523.26" width="195.737" height="195.737" rx="97.8684" fill="#D83435"/>
<rect x="1565.89" y="3523.26" width="195.737" height="195.737" rx="97.8684" fill="#C12E27"/>
<rect x="1761.63" y="3523.26" width="195.737" height="195.737" rx="97.8684" fill="#E82127"/>
</svg>
