<svg width="2937" height="3719" viewBox="0 0 2937 3719" fill="none" xmlns="http://www.w3.org/2000/svg">
<rect x="1174.42" width="195.737" height="195.737" rx="97.8684" fill="#F40407"/>
<rect x="1370.16" width="195.737" height="195.737" rx="97.8684" fill="#DE3340"/>
<rect x="1174.42" y="195.737" width="195.737" height="195.737" rx="97.8684" fill="#CA2C29"/>
<rect x="978.686" y="391.474" width="195.737" height="195.737" rx="97.8684" fill="#E82127"/>
<rect x="1174.42" y="391.474" width="195.737" height="195.737" rx="97.8684" fill="#D23733"/>
<rect x="1370.16" y="391.474" width="195.737" height="195.737" rx="97.8684" fill="#BF2821"/>
<rect x="1957.37" y="391.474" width="195.737" height="195.737" rx="97.8684" fill="#F40407"/>
<rect x="1174.42" y="587.211" width="195.737" height="195.737" rx="97.8684" fill="#D03732"/>
<rect x="1370.16" y="587.211" width="195.737" height="195.737" rx="97.8684" fill="#D33532"/>
<rect x="1565.89" y="587.211" width="195.737" height="195.737" rx="97.8684" fill="#E82127"/>
<rect x="1957.37" y="587.211" width="195.737" height="195.737" rx="97.8684" fill="#D63431"/>
<rect x="1174.42" y="782.947" width="195.737" height="195.737" rx="97.8684" fill="#D23431"/>
<rect x="1370.16" y="782.947" width="195.737" height="195.737" rx="97.8684" fill="#CD342E"/>
<rect x="1565.89" y="782.947" width="195.737" height="195.737" rx="97.8684" fill="#CF312E"/>
<rect x="1761.63" y="782.947" width="195.737" height="195.737" rx="97.8684" fill="#D12F2C"/>
<rect x="1957.37" y="782.947" width="195.737" height="195.737" rx="97.8684" fill="#CF2929"/>
<rect x="2153.11" y="782.947" width="195.737" height="195.737" rx="97.8684" fill="#CA2521"/>
<rect x="391.474" y="978.684" width="195.737" height="195.737" rx="97.8684" fill="#D33027"/>
<rect x="587.211" y="978.684" width="195.737" height="195.737" rx="97.8684" fill="#DE3340"/>
<rect x="1174.42" y="978.684" width="195.737" height="195.737" rx="97.8684" fill="#CF3128"/>
<rect x="1370.16" y="978.684" width="195.737" height="195.737" rx="97.8684" fill="#C72D21"/>
<rect x="1565.89" y="978.684" width="195.737" height="195.737" rx="97.8684" fill="#D0312D"/>
<rect x="1761.63" y="978.684" width="195.737" height="195.737" rx="97.8684" fill="#D2332F"/>
<rect x="1957.37" y="978.684" width="195.737" height="195.737" rx="97.8684" fill="#CD2F2C"/>
<rect x="2153.11" y="978.684" width="195.737" height="195.737" rx="97.8684" fill="#CF302A"/>
<rect x="2740.32" y="978.684" width="195.737" height="195.737" rx="97.8684" fill="#DE3340"/>
<rect x="391.474" y="1174.42" width="195.737" height="195.737" rx="97.8684" fill="#CD2B29"/>
<rect x="587.211" y="1174.42" width="195.737" height="195.737" rx="97.8684" fill="#D3362F"/>
<rect x="1174.42" y="1174.42" width="195.737" height="195.737" rx="97.8684" fill="#CF302D"/>
<rect x="1370.16" y="1174.42" width="195.737" height="195.737" rx="97.8684" fill="#CD332B"/>
<rect x="1565.89" y="1174.42" width="195.737" height="195.737" rx="97.8684" fill="#ED841B"/>
<rect x="1761.63" y="1174.42" width="195.737" height="195.737" rx="97.8684" fill="#CD2F26"/>
<rect x="1957.37" y="1174.42" width="195.737" height="195.737" rx="97.8684" fill="#CE312C"/>
<rect x="2153.11" y="1174.42" width="195.737" height="195.737" rx="97.8684" fill="#CC3024"/>
<rect x="2544.58" y="1174.42" width="195.737" height="195.737" rx="97.8684" fill="#D12D2E"/>
<rect x="391.474" y="1370.16" width="195.737" height="195.737" rx="97.8684" fill="#CD2B28"/>
<rect x="587.211" y="1370.16" width="195.737" height="195.737" rx="97.8684" fill="#CB2D2C"/>
<rect x="978.686" y="1370.16" width="195.737" height="195.737" rx="97.8684" fill="#D5302C"/>
<rect x="1174.42" y="1370.16" width="195.737" height="195.737" rx="97.8684" fill="#D0312E"/>
<rect x="1370.16" y="1370.16" width="195.737" height="195.737" rx="97.8684" fill="#C82923"/>
<rect x="1565.89" y="1370.16" width="195.737" height="195.737" rx="97.8684" fill="#ED811E"/>
<rect x="1761.63" y="1370.16" width="195.737" height="195.737" rx="97.8684" fill="#EC821C"/>
<rect x="1957.37" y="1370.16" width="195.737" height="195.737" rx="97.8684" fill="#D0332C"/>
<rect x="2153.11" y="1370.16" width="195.737" height="195.737" rx="97.8684" fill="#DE3340"/>
<rect x="2348.84" y="1370.16" width="195.737" height="195.737" rx="97.8684" fill="#EA4335"/>
<rect x="2544.58" y="1370.16" width="195.737" height="195.737" rx="97.8684" fill="#D12F2C"/>
<rect x="195.737" y="1565.89" width="195.737" height="195.737" rx="97.8684" fill="#BB3A25"/>
<rect x="391.474" y="1565.89" width="195.737" height="195.737" rx="97.8684" fill="#CC2F28"/>
<rect x="587.211" y="1565.89" width="195.737" height="195.737" rx="97.8684" fill="#D03428"/>
<rect x="782.947" y="1565.89" width="195.737" height="195.737" rx="97.8684" fill="#C92A27"/>
<rect x="978.686" y="1565.89" width="195.737" height="195.737" rx="97.8684" fill="#D23830"/>
<rect x="1174.42" y="1565.89" width="195.737" height="195.737" rx="97.8684" fill="#D6382F"/>
<rect x="1370.16" y="1565.89" width="195.737" height="195.737" rx="97.8684" fill="#EB7F1C"/>
<rect x="1565.89" y="1565.89" width="195.737" height="195.737" rx="97.8684" fill="#EE8420"/>
<rect x="1761.63" y="1565.89" width="195.737" height="195.737" rx="97.8684" fill="#EA7C1A"/>
<rect x="1957.37" y="1565.89" width="195.737" height="195.737" rx="97.8684" fill="#D73532"/>
<rect x="2153.11" y="1565.89" width="195.737" height="195.737" rx="97.8684" fill="#EA4335"/>
<rect x="2348.84" y="1565.89" width="195.737" height="195.737" rx="97.8684" fill="#DE3340"/>
<rect x="2544.58" y="1565.89" width="195.737" height="195.737" rx="97.8684" fill="#D23830"/>
<rect x="195.737" y="1761.63" width="195.737" height="195.737" rx="97.8684" fill="#CF302C"/>
<rect x="391.474" y="1761.63" width="195.737" height="195.737" rx="97.8684" fill="#D53734"/>
<rect x="587.211" y="1761.63" width="195.737" height="195.737" rx="97.8684" fill="#D0362E"/>
<rect x="782.947" y="1761.63" width="195.737" height="195.737" rx="97.8684" fill="#CD2F2C"/>
<rect x="978.686" y="1761.63" width="195.737" height="195.737" rx="97.8684" fill="#CD2B28"/>
<rect x="1174.42" y="1761.63" width="195.737" height="195.737" rx="97.8684" fill="#E67914"/>
<rect x="1370.16" y="1761.63" width="195.737" height="195.737" rx="97.8684" fill="#ED861F"/>
<rect x="1565.89" y="1761.63" width="195.737" height="195.737" rx="97.8684" fill="#F18721"/>
<rect x="1761.63" y="1761.63" width="195.737" height="195.737" rx="97.8684" fill="#EC851E"/>
<rect x="1957.37" y="1761.63" width="195.737" height="195.737" rx="97.8684" fill="#D5312F"/>
<rect x="2153.11" y="1761.63" width="195.737" height="195.737" rx="97.8684" fill="#D2352E"/>
<rect x="2348.84" y="1761.63" width="195.737" height="195.737" rx="97.8684" fill="#CB2E29"/>
<rect x="2544.58" y="1761.63" width="195.737" height="195.737" rx="97.8684" fill="#D0332C"/>
<rect x="2740.32" y="1761.63" width="195.737" height="195.737" rx="97.8684" fill="#C72920"/>
<rect x="195.737" y="1957.37" width="195.737" height="195.737" rx="97.8684" fill="#D33A35"/>
<rect x="391.474" y="1957.37" width="195.737" height="195.737" rx="97.8684" fill="#CF322D"/>
<rect x="587.211" y="1957.37" width="195.737" height="195.737" rx="97.8684" fill="#C72C28"/>
<rect x="782.947" y="1957.37" width="195.737" height="195.737" rx="97.8684" fill="#CF302C"/>
<rect x="978.686" y="1957.37" width="195.737" height="195.737" rx="97.8684" fill="#EF891D"/>
<rect x="1174.42" y="1957.37" width="195.737" height="195.737" rx="97.8684" fill="#EE841E"/>
<rect x="1370.16" y="1957.37" width="195.737" height="195.737" rx="97.8684" fill="#E67C18"/>
<rect x="1565.89" y="1957.37" width="195.737" height="195.737" rx="97.8684" fill="#E58B19"/>
<rect x="1761.63" y="1957.37" width="195.737" height="195.737" rx="97.8684" fill="#EC871F"/>
<rect x="1957.37" y="1957.37" width="195.737" height="195.737" rx="97.8684" fill="#CF312E"/>
<rect x="2153.11" y="1957.37" width="195.737" height="195.737" rx="97.8684" fill="#CE332E"/>
<rect x="2348.84" y="1957.37" width="195.737" height="195.737" rx="97.8684" fill="#CA2D28"/>
<rect x="2544.58" y="1957.37" width="195.737" height="195.737" rx="97.8684" fill="#C92E29"/>
<rect x="2740.32" y="1957.37" width="195.737" height="195.737" rx="97.8684" fill="#CF302C"/>
<rect x="195.737" y="2153.1" width="195.737" height="195.737" rx="97.8684" fill="#D33631"/>
<rect x="391.474" y="2153.1" width="195.737" height="195.737" rx="97.8684" fill="#D23530"/>
<rect x="587.211" y="2153.1" width="195.737" height="195.737" rx="97.8684" fill="#E57819"/>
<rect x="782.947" y="2153.1" width="195.737" height="195.737" rx="97.8684" fill="#D2342B"/>
<rect x="978.686" y="2153.1" width="195.737" height="195.737" rx="97.8684" fill="#E8831B"/>
<rect x="1174.42" y="2153.1" width="195.737" height="195.737" rx="97.8684" fill="#F08220"/>
<rect x="1370.16" y="2153.1" width="195.737" height="195.737" rx="97.8684" fill="#F4CA3A"/>
<rect x="1565.89" y="2153.1" width="195.737" height="195.737" rx="97.8684" fill="#ED8C21"/>
<rect x="1761.63" y="2153.1" width="195.737" height="195.737" rx="97.8684" fill="#E67F1A"/>
<rect x="1957.37" y="2153.1" width="195.737" height="195.737" rx="97.8684" fill="#CA2826"/>
<rect x="2153.11" y="2153.1" width="195.737" height="195.737" rx="97.8684" fill="#D1342D"/>
<rect x="2348.84" y="2153.1" width="195.737" height="195.737" rx="97.8684" fill="#F38A21"/>
<rect x="2544.58" y="2153.1" width="195.737" height="195.737" rx="97.8684" fill="#CD302B"/>
<rect x="2740.32" y="2153.1" width="195.737" height="195.737" rx="97.8684" fill="#CD2F2C"/>
<rect x="195.737" y="2348.84" width="195.737" height="195.737" rx="97.8684" fill="#C92E2A"/>
<rect x="391.474" y="2348.84" width="195.737" height="195.737" rx="97.8684" fill="#C92E1A"/>
<rect x="587.211" y="2348.84" width="195.737" height="195.737" rx="97.8684" fill="#E9821D"/>
<rect x="782.947" y="2348.84" width="195.737" height="195.737" rx="97.8684" fill="#EE8122"/>
<rect x="978.686" y="2348.84" width="195.737" height="195.737" rx="97.8684" fill="#ED811E"/>
<rect x="1174.42" y="2348.84" width="195.737" height="195.737" rx="97.8684" fill="#EC821E"/>
<rect x="1370.16" y="2348.84" width="195.737" height="195.737" rx="97.8684" fill="#F3CE3F"/>
<rect x="1565.89" y="2348.84" width="195.737" height="195.737" rx="97.8684" fill="#F0C835"/>
<rect x="1761.63" y="2348.84" width="195.737" height="195.737" rx="97.8684" fill="#E98015"/>
<rect x="1957.37" y="2348.84" width="195.737" height="195.737" rx="97.8684" fill="#EE831B"/>
<rect x="2153.11" y="2348.84" width="195.737" height="195.737" rx="97.8684" fill="#EC831A"/>
<rect x="2348.84" y="2348.84" width="195.737" height="195.737" rx="97.8684" fill="#EB841B"/>
<rect x="2544.58" y="2348.84" width="195.737" height="195.737" rx="97.8684" fill="#CA2B28"/>
<rect x="2740.32" y="2348.84" width="195.737" height="195.737" rx="97.8684" fill="#CF2D2A"/>
<rect x="195.737" y="2544.58" width="195.737" height="195.737" rx="97.8684" fill="#CD322D"/>
<rect x="391.474" y="2544.58" width="195.737" height="195.737" rx="97.8684" fill="#ED802D"/>
<rect x="587.211" y="2544.58" width="195.737" height="195.737" rx="97.8684" fill="#EB8521"/>
<rect x="782.947" y="2544.58" width="195.737" height="195.737" rx="97.8684" fill="#E87E18"/>
<rect x="978.686" y="2544.58" width="195.737" height="195.737" rx="97.8684" fill="#EB8520"/>
<rect x="1174.42" y="2544.58" width="195.737" height="195.737" rx="97.8684" fill="#E97F19"/>
<rect x="1370.16" y="2544.58" width="195.737" height="195.737" rx="97.8684" fill="#F3CF39"/>
<rect x="1565.89" y="2544.58" width="195.737" height="195.737" rx="97.8684" fill="#F3CA3E"/>
<rect x="1761.63" y="2544.58" width="195.737" height="195.737" rx="97.8684" fill="#F6CD41"/>
<rect x="1957.37" y="2544.58" width="195.737" height="195.737" rx="97.8684" fill="#EC861A"/>
<rect x="2153.11" y="2544.58" width="195.737" height="195.737" rx="97.8684" fill="#EA841F"/>
<rect x="2348.84" y="2544.58" width="195.737" height="195.737" rx="97.8684" fill="#E9821D"/>
<rect x="2544.58" y="2544.58" width="195.737" height="195.737" rx="97.8684" fill="#CB351D"/>
<rect x="2740.32" y="2544.58" width="195.737" height="195.737" rx="97.8684" fill="#D23530"/>
<rect y="2740.32" width="195.737" height="195.737" rx="97.8684" fill="#CE382A"/>
<rect x="195.737" y="2740.32" width="195.737" height="195.737" rx="97.8684" fill="#CC2E2B"/>
<rect x="391.474" y="2740.32" width="195.737" height="195.737" rx="97.8684" fill="#F9873E"/>
<rect x="587.211" y="2740.32" width="195.737" height="195.737" rx="97.8684" fill="#E97F1B"/>
<rect x="782.947" y="2740.32" width="195.737" height="195.737" rx="97.8684" fill="#ED8820"/>
<rect x="978.686" y="2740.32" width="195.737" height="195.737" rx="97.8684" fill="#FFCE46"/>
<rect x="1174.42" y="2740.32" width="195.737" height="195.737" rx="97.8684" fill="#ED8820"/>
<rect x="1370.16" y="2740.32" width="195.737" height="195.737" rx="97.8684" fill="#F7CF3C"/>
<rect x="1565.89" y="2740.32" width="195.737" height="195.737" rx="97.8684" fill="#F4CB3D"/>
<rect x="1761.63" y="2740.32" width="195.737" height="195.737" rx="97.8684" fill="#FAD23F"/>
<rect x="1957.37" y="2740.32" width="195.737" height="195.737" rx="97.8684" fill="#F3CD3C"/>
<rect x="2153.11" y="2740.32" width="195.737" height="195.737" rx="97.8684" fill="#F38A21"/>
<rect x="2348.84" y="2740.32" width="195.737" height="195.737" rx="97.8684" fill="#E8801D"/>
<rect x="2544.58" y="2740.32" width="195.737" height="195.737" rx="97.8684" fill="#CD3027"/>
<rect x="2740.32" y="2740.32" width="195.737" height="195.737" rx="97.8684" fill="#D1322E"/>
<rect x="195.737" y="2936.05" width="195.737" height="195.737" rx="97.8684" fill="#CF322D"/>
<rect x="391.474" y="2936.05" width="195.737" height="195.737" rx="97.8684" fill="#C72825"/>
<rect x="587.211" y="2936.05" width="195.737" height="195.737" rx="97.8684" fill="#F08924"/>
<rect x="782.947" y="2936.05" width="195.737" height="195.737" rx="97.8684" fill="#EE8722"/>
<rect x="978.686" y="2936.05" width="195.737" height="195.737" rx="97.8684" fill="#F5CC3C"/>
<rect x="1174.42" y="2936.05" width="195.737" height="195.737" rx="97.8684" fill="#FBD046"/>
<rect x="1370.16" y="2936.05" width="195.737" height="195.737" rx="97.8684" fill="#F2C93B"/>
<rect x="1565.89" y="2936.05" width="195.737" height="195.737" rx="97.8684" fill="#F6CC42"/>
<rect x="1761.63" y="2936.05" width="195.737" height="195.737" rx="97.8684" fill="#FBCE3F"/>
<rect x="1957.37" y="2936.05" width="195.737" height="195.737" rx="97.8684" fill="#F4CB3F"/>
<rect x="2153.11" y="2936.05" width="195.737" height="195.737" rx="97.8684" fill="#EB811D"/>
<rect x="2348.84" y="2936.05" width="195.737" height="195.737" rx="97.8684" fill="#F18C24"/>
<rect x="2544.58" y="2936.05" width="195.737" height="195.737" rx="97.8684" fill="#D2302D"/>
<rect x="195.737" y="3131.79" width="195.737" height="195.737" rx="97.8684" fill="#E82127"/>
<rect x="391.474" y="3131.79" width="195.737" height="195.737" rx="97.8684" fill="#D33B30"/>
<rect x="587.211" y="3131.79" width="195.737" height="195.737" rx="97.8684" fill="#F1881D"/>
<rect x="782.947" y="3131.79" width="195.737" height="195.737" rx="97.8684" fill="#E87812"/>
<rect x="978.686" y="3131.79" width="195.737" height="195.737" rx="97.8684" fill="#F6CD41"/>
<rect x="1174.42" y="3131.79" width="195.737" height="195.737" rx="97.8684" fill="#F8CD42"/>
<rect x="1370.16" y="3131.79" width="195.737" height="195.737" rx="97.8684" fill="#F4CB3D"/>
<rect x="1565.89" y="3131.79" width="195.737" height="195.737" rx="97.8684" fill="#F3CA3C"/>
<rect x="1761.63" y="3131.79" width="195.737" height="195.737" rx="97.8684" fill="#F6CD3F"/>
<rect x="1957.37" y="3131.79" width="195.737" height="195.737" rx="97.8684" fill="#F0CA39"/>
<rect x="2153.11" y="3131.79" width="195.737" height="195.737" rx="97.8684" fill="#EB8219"/>
<rect x="2348.84" y="3131.79" width="195.737" height="195.737" rx="97.8684" fill="#F47935"/>
<rect x="2544.58" y="3131.79" width="195.737" height="195.737" rx="97.8684" fill="#DE3340"/>
<rect x="587.211" y="3327.53" width="195.737" height="195.737" rx="97.8684" fill="#CE2C2A"/>
<rect x="782.947" y="3327.53" width="195.737" height="195.737" rx="97.8684" fill="#EF8424"/>
<rect x="978.686" y="3327.53" width="195.737" height="195.737" rx="97.8684" fill="#EFA82A"/>
<rect x="1174.42" y="3327.53" width="195.737" height="195.737" rx="97.8684" fill="#F0CE37"/>
<rect x="1370.16" y="3327.53" width="195.737" height="195.737" rx="97.8684" fill="#F1CB38"/>
<rect x="1565.89" y="3327.53" width="195.737" height="195.737" rx="97.8684" fill="#F7CF3C"/>
<rect x="1761.63" y="3327.53" width="195.737" height="195.737" rx="97.8684" fill="#F0CA37"/>
<rect x="1957.37" y="3327.53" width="195.737" height="195.737" rx="97.8684" fill="#EE8C1F"/>
<rect x="2153.11" y="3327.53" width="195.737" height="195.737" rx="97.8684" fill="#CA421A"/>
<rect x="978.686" y="3523.26" width="195.737" height="195.737" rx="97.8684" fill="#973913"/>
<rect x="1174.42" y="3523.26" width="195.737" height="195.737" rx="97.8684" fill="#CB2D14"/>
<rect x="1370.16" y="3523.26" width="195.737" height="195.737" rx="97.8684" fill="#ED7622"/>
<rect x="1565.89" y="3523.26" width="195.737" height="195.737" rx="97.8684" fill="#F78330"/>
<rect x="1761.63" y="3523.26" width="195.737" height="195.737" rx="97.8684" fill="#F40407"/>
</svg>
