<svg width="3132" height="3524" viewBox="0 0 3132 3524" fill="none" xmlns="http://www.w3.org/2000/svg">
<rect x="978.686" width="195.737" height="195.737" rx="97.8684" fill="#D42B26"/>
<rect x="1174.42" width="195.737" height="195.737" rx="97.8684" fill="#D53330"/>
<rect x="1370.16" width="195.737" height="195.737" rx="97.8684" fill="#CC2D29"/>
<rect x="1565.89" width="195.737" height="195.737" rx="97.8684" fill="#CF2B29"/>
<rect x="782.949" y="195.737" width="195.737" height="195.737" rx="97.8684" fill="#A53E1D"/>
<rect x="978.686" y="195.737" width="195.737" height="195.737" rx="97.8684" fill="#DE3340"/>
<rect x="1174.42" y="195.737" width="195.737" height="195.737" rx="97.8684" fill="#D32D2D"/>
<rect x="1370.16" y="195.737" width="195.737" height="195.737" rx="97.8684" fill="#D13330"/>
<rect x="1565.89" y="195.737" width="195.737" height="195.737" rx="97.8684" fill="#CC332E"/>
<rect x="1761.63" y="195.737" width="195.737" height="195.737" rx="97.8684" fill="#CF302C"/>
<rect x="1957.37" y="195.737" width="195.737" height="195.737" rx="97.8684" fill="#F40407"/>
<rect x="1174.42" y="391.474" width="195.737" height="195.737" rx="97.8684" fill="#B7301D"/>
<rect x="1370.16" y="391.474" width="195.737" height="195.737" rx="97.8684" fill="#D23330"/>
<rect x="1565.89" y="391.474" width="195.737" height="195.737" rx="97.8684" fill="#CF312E"/>
<rect x="1761.63" y="391.474" width="195.737" height="195.737" rx="97.8684" fill="#D0312E"/>
<rect x="1957.37" y="391.474" width="195.737" height="195.737" rx="97.8684" fill="#CE2C29"/>
<rect x="1174.42" y="587.21" width="195.737" height="195.737" rx="97.8684" fill="#DE3340"/>
<rect x="1370.16" y="587.21" width="195.737" height="195.737" rx="97.8684" fill="#D22F30"/>
<rect x="1565.89" y="587.21" width="195.737" height="195.737" rx="97.8684" fill="#D1342F"/>
<rect x="1761.63" y="587.21" width="195.737" height="195.737" rx="97.8684" fill="#CB2C29"/>
<rect x="1957.37" y="587.21" width="195.737" height="195.737" rx="97.8684" fill="#CC2F2A"/>
<rect x="2153.11" y="587.21" width="195.737" height="195.737" rx="97.8684" fill="#D22D29"/>
<rect x="587.211" y="782.947" width="195.737" height="195.737" rx="97.8684" fill="#EA4335"/>
<rect x="1174.42" y="782.947" width="195.737" height="195.737" rx="97.8684" fill="#D52E28"/>
<rect x="1370.16" y="782.947" width="195.737" height="195.737" rx="97.8684" fill="#CA2F1D"/>
<rect x="1565.89" y="782.947" width="195.737" height="195.737" rx="97.8684" fill="#D33A2A"/>
<rect x="1761.63" y="782.947" width="195.737" height="195.737" rx="97.8684" fill="#CC2E2B"/>
<rect x="1957.37" y="782.947" width="195.737" height="195.737" rx="97.8684" fill="#CF342F"/>
<rect x="2153.11" y="782.947" width="195.737" height="195.737" rx="97.8684" fill="#D3312E"/>
<rect x="391.475" y="978.684" width="195.737" height="195.737" rx="97.8684" fill="#993817"/>
<rect x="587.211" y="978.684" width="195.737" height="195.737" rx="97.8684" fill="#D02A2A"/>
<rect x="1174.42" y="978.684" width="195.737" height="195.737" rx="97.8684" fill="#D12F2C"/>
<rect x="1370.16" y="978.684" width="195.737" height="195.737" rx="97.8684" fill="#D23025"/>
<rect x="1565.89" y="978.684" width="195.737" height="195.737" rx="97.8684" fill="#EE8417"/>
<rect x="1761.63" y="978.684" width="195.737" height="195.737" rx="97.8684" fill="#D3302B"/>
<rect x="1957.37" y="978.684" width="195.737" height="195.737" rx="97.8684" fill="#D4322F"/>
<rect x="2153.11" y="978.684" width="195.737" height="195.737" rx="97.8684" fill="#D02C2A"/>
<rect x="391.475" y="1174.42" width="195.737" height="195.737" rx="97.8684" fill="#D33431"/>
<rect x="587.211" y="1174.42" width="195.737" height="195.737" rx="97.8684" fill="#D3312F"/>
<rect x="978.686" y="1174.42" width="195.737" height="195.737" rx="97.8684" fill="#D1322E"/>
<rect x="1174.42" y="1174.42" width="195.737" height="195.737" rx="97.8684" fill="#D43732"/>
<rect x="1370.16" y="1174.42" width="195.737" height="195.737" rx="97.8684" fill="#FB812C"/>
<rect x="1565.89" y="1174.42" width="195.737" height="195.737" rx="97.8684" fill="#EE841E"/>
<rect x="1761.63" y="1174.42" width="195.737" height="195.737" rx="97.8684" fill="#EC7F1A"/>
<rect x="1957.37" y="1174.42" width="195.737" height="195.737" rx="97.8684" fill="#CF2B2A"/>
<rect x="2153.11" y="1174.42" width="195.737" height="195.737" rx="97.8684" fill="#D43531"/>
<rect x="2544.58" y="1174.42" width="195.737" height="195.737" rx="97.8684" fill="#D22F2A"/>
<rect x="195.738" y="1370.16" width="195.737" height="195.737" rx="97.8684" fill="#D02A2A"/>
<rect x="391.475" y="1370.16" width="195.737" height="195.737" rx="97.8684" fill="#CE2F29"/>
<rect x="587.211" y="1370.16" width="195.737" height="195.737" rx="97.8684" fill="#D1322E"/>
<rect x="782.949" y="1370.16" width="195.737" height="195.737" rx="97.8684" fill="#CD322D"/>
<rect x="978.686" y="1370.16" width="195.737" height="195.737" rx="97.8684" fill="#C82F2A"/>
<rect x="1174.42" y="1370.16" width="195.737" height="195.737" rx="97.8684" fill="#D2352C"/>
<rect x="1370.16" y="1370.16" width="195.737" height="195.737" rx="97.8684" fill="#EA7E19"/>
<rect x="1565.89" y="1370.16" width="195.737" height="195.737" rx="97.8684" fill="#ED861F"/>
<rect x="1761.63" y="1370.16" width="195.737" height="195.737" rx="97.8684" fill="#ED841B"/>
<rect x="1957.37" y="1370.16" width="195.737" height="195.737" rx="97.8684" fill="#CF2A24"/>
<rect x="2153.11" y="1370.16" width="195.737" height="195.737" rx="97.8684" fill="#D12D2C"/>
<rect x="2544.58" y="1370.16" width="195.737" height="195.737" rx="97.8684" fill="#CE2A28"/>
<rect x="2740.32" y="1370.16" width="195.737" height="195.737" rx="97.8684" fill="#D83631"/>
<rect x="195.738" y="1565.89" width="195.737" height="195.737" rx="97.8684" fill="#D0332E"/>
<rect x="391.475" y="1565.89" width="195.737" height="195.737" rx="97.8684" fill="#CE332E"/>
<rect x="587.211" y="1565.89" width="195.737" height="195.737" rx="97.8684" fill="#D13830"/>
<rect x="782.949" y="1565.89" width="195.737" height="195.737" rx="97.8684" fill="#D3362F"/>
<rect x="978.686" y="1565.89" width="195.737" height="195.737" rx="97.8684" fill="#D0332C"/>
<rect x="1174.42" y="1565.89" width="195.737" height="195.737" rx="97.8684" fill="#ED8019"/>
<rect x="1370.16" y="1565.89" width="195.737" height="195.737" rx="97.8684" fill="#EE871E"/>
<rect x="1565.89" y="1565.89" width="195.737" height="195.737" rx="97.8684" fill="#E97E14"/>
<rect x="1761.63" y="1565.89" width="195.737" height="195.737" rx="97.8684" fill="#F18A25"/>
<rect x="1957.37" y="1565.89" width="195.737" height="195.737" rx="97.8684" fill="#F4812E"/>
<rect x="2153.11" y="1565.89" width="195.737" height="195.737" rx="97.8684" fill="#D2332F"/>
<rect x="2348.84" y="1565.89" width="195.737" height="195.737" rx="97.8684" fill="#CE2F2C"/>
<rect x="2544.58" y="1565.89" width="195.737" height="195.737" rx="97.8684" fill="#D13631"/>
<rect x="2740.32" y="1565.89" width="195.737" height="195.737" rx="97.8684" fill="#D13830"/>
<rect x="195.738" y="1761.63" width="195.737" height="195.737" rx="97.8684" fill="#D83935"/>
<rect x="391.475" y="1761.63" width="195.737" height="195.737" rx="97.8684" fill="#C82F27"/>
<rect x="587.211" y="1761.63" width="195.737" height="195.737" rx="97.8684" fill="#C3261D"/>
<rect x="782.949" y="1761.63" width="195.737" height="195.737" rx="97.8684" fill="#CC2E2B"/>
<rect x="978.686" y="1761.63" width="195.737" height="195.737" rx="97.8684" fill="#D13C1B"/>
<rect x="1174.42" y="1761.63" width="195.737" height="195.737" rx="97.8684" fill="#E97F1B"/>
<rect x="1370.16" y="1761.63" width="195.737" height="195.737" rx="97.8684" fill="#EC7F18"/>
<rect x="1565.89" y="1761.63" width="195.737" height="195.737" rx="97.8684" fill="#F3CF39"/>
<rect x="1761.63" y="1761.63" width="195.737" height="195.737" rx="97.8684" fill="#EE8420"/>
<rect x="1957.37" y="1761.63" width="195.737" height="195.737" rx="97.8684" fill="#E77918"/>
<rect x="2153.11" y="1761.63" width="195.737" height="195.737" rx="97.8684" fill="#CF302A"/>
<rect x="2348.84" y="1761.63" width="195.737" height="195.737" rx="97.8684" fill="#D0332E"/>
<rect x="2544.58" y="1761.63" width="195.737" height="195.737" rx="97.8684" fill="#C32C17"/>
<rect x="2740.32" y="1761.63" width="195.737" height="195.737" rx="97.8684" fill="#CB302B"/>
<rect y="1957.37" width="195.737" height="195.737" rx="97.8684" fill="#DE3340"/>
<rect x="195.738" y="1957.37" width="195.737" height="195.737" rx="97.8684" fill="#D53633"/>
<rect x="391.475" y="1957.37" width="195.737" height="195.737" rx="97.8684" fill="#D13832"/>
<rect x="587.211" y="1957.37" width="195.737" height="195.737" rx="97.8684" fill="#EB8320"/>
<rect x="782.949" y="1957.37" width="195.737" height="195.737" rx="97.8684" fill="#D02C2B"/>
<rect x="978.686" y="1957.37" width="195.737" height="195.737" rx="97.8684" fill="#EF851F"/>
<rect x="1174.42" y="1957.37" width="195.737" height="195.737" rx="97.8684" fill="#F0871C"/>
<rect x="1370.16" y="1957.37" width="195.737" height="195.737" rx="97.8684" fill="#F1C733"/>
<rect x="1565.89" y="1957.37" width="195.737" height="195.737" rx="97.8684" fill="#F0CA3B"/>
<rect x="1761.63" y="1957.37" width="195.737" height="195.737" rx="97.8684" fill="#EF831E"/>
<rect x="1957.37" y="1957.37" width="195.737" height="195.737" rx="97.8684" fill="#EB7F1C"/>
<rect x="2153.11" y="1957.37" width="195.737" height="195.737" rx="97.8684" fill="#D1342F"/>
<rect x="2348.84" y="1957.37" width="195.737" height="195.737" rx="97.8684" fill="#D6342F"/>
<rect x="2544.58" y="1957.37" width="195.737" height="195.737" rx="97.8684" fill="#EE811C"/>
<rect x="2740.32" y="1957.37" width="195.737" height="195.737" rx="97.8684" fill="#CD3029"/>
<rect y="2153.11" width="195.737" height="195.737" rx="97.8684" fill="#E82127"/>
<rect x="2936.16" y="1957.37" width="195.737" height="195.737" rx="97.8684" fill="#DE3340"/>
<rect x="2936.16" y="2153.11" width="195.737" height="195.737" rx="97.8684" fill="#E82127"/>
<rect x="2936.16" y="2348.26" width="195.737" height="195.737" rx="97.8684" fill="#DE3340"/>
<rect x="195.738" y="2153.11" width="195.737" height="195.737" rx="97.8684" fill="#D1322F"/>
<rect x="391.475" y="2153.11" width="195.737" height="195.737" rx="97.8684" fill="#CE2927"/>
<rect x="587.211" y="2153.11" width="195.737" height="195.737" rx="97.8684" fill="#EA821F"/>
<rect x="782.949" y="2153.11" width="195.737" height="195.737" rx="97.8684" fill="#EB841F"/>
<rect x="978.686" y="2153.11" width="195.737" height="195.737" rx="97.8684" fill="#E97D18"/>
<rect x="1174.42" y="2153.11" width="195.737" height="195.737" rx="97.8684" fill="#E87E18"/>
<rect x="1370.16" y="2153.11" width="195.737" height="195.737" rx="97.8684" fill="#F8CF41"/>
<rect x="1565.89" y="2153.11" width="195.737" height="195.737" rx="97.8684" fill="#F6CC3C"/>
<rect x="1761.63" y="2153.11" width="195.737" height="195.737" rx="97.8684" fill="#FBCC42"/>
<rect x="1957.37" y="2153.11" width="195.737" height="195.737" rx="97.8684" fill="#EE841E"/>
<rect x="2153.11" y="2153.11" width="195.737" height="195.737" rx="97.8684" fill="#C1271B"/>
<rect x="2348.84" y="2153.11" width="195.737" height="195.737" rx="97.8684" fill="#E97D18"/>
<rect x="2544.58" y="2153.11" width="195.737" height="195.737" rx="97.8684" fill="#ED841B"/>
<rect x="2740.32" y="2153.11" width="195.737" height="195.737" rx="97.8684" fill="#CD2E2A"/>
<rect x="195.738" y="2348.84" width="195.737" height="195.737" rx="97.8684" fill="#CE2F2B"/>
<rect x="391.475" y="2348.84" width="195.737" height="195.737" rx="97.8684" fill="#C92B22"/>
<rect x="587.211" y="2348.84" width="195.737" height="195.737" rx="97.8684" fill="#EA831E"/>
<rect x="782.949" y="2348.84" width="195.737" height="195.737" rx="97.8684" fill="#EA801C"/>
<rect x="978.686" y="2348.84" width="195.737" height="195.737" rx="97.8684" fill="#EB8822"/>
<rect x="1174.42" y="2348.84" width="195.737" height="195.737" rx="97.8684" fill="#EB7E15"/>
<rect x="1370.16" y="2348.84" width="195.737" height="195.737" rx="97.8684" fill="#F1CA3F"/>
<rect x="1565.89" y="2348.84" width="195.737" height="195.737" rx="97.8684" fill="#F7CE42"/>
<rect x="1761.63" y="2348.84" width="195.737" height="195.737" rx="97.8684" fill="#F4CD34"/>
<rect x="1957.37" y="2348.84" width="195.737" height="195.737" rx="97.8684" fill="#EE871E"/>
<rect x="2153.11" y="2348.84" width="195.737" height="195.737" rx="97.8684" fill="#EC8621"/>
<rect x="2348.84" y="2348.84" width="195.737" height="195.737" rx="97.8684" fill="#E47E19"/>
<rect x="2544.58" y="2348.84" width="195.737" height="195.737" rx="97.8684" fill="#E7801B"/>
<rect x="2740.32" y="2348.84" width="195.737" height="195.737" rx="97.8684" fill="#CF2B2A"/>
<rect x="195.738" y="2544.58" width="195.737" height="195.737" rx="97.8684" fill="#D33532"/>
<rect x="391.475" y="2544.58" width="195.737" height="195.737" rx="97.8684" fill="#D1342F"/>
<rect x="587.211" y="2544.58" width="195.737" height="195.737" rx="97.8684" fill="#EC801D"/>
<rect x="782.949" y="2544.58" width="195.737" height="195.737" rx="97.8684" fill="#EB7F1A"/>
<rect x="978.686" y="2544.58" width="195.737" height="195.737" rx="97.8684" fill="#F7CF3C"/>
<rect x="1174.42" y="2544.58" width="195.737" height="195.737" rx="97.8684" fill="#F3CC41"/>
<rect x="1370.16" y="2544.58" width="195.737" height="195.737" rx="97.8684" fill="#F3CA3C"/>
<rect x="1565.89" y="2544.58" width="195.737" height="195.737" rx="97.8684" fill="#F4CE3B"/>
<rect x="1761.63" y="2544.58" width="195.737" height="195.737" rx="97.8684" fill="#F0C93E"/>
<rect x="1957.37" y="2544.58" width="195.737" height="195.737" rx="97.8684" fill="#F8C339"/>
<rect x="2153.11" y="2544.58" width="195.737" height="195.737" rx="97.8684" fill="#E97F19"/>
<rect x="2348.84" y="2544.58" width="195.737" height="195.737" rx="97.8684" fill="#E5821C"/>
<rect x="2544.58" y="2544.58" width="195.737" height="195.737" rx="97.8684" fill="#EB811B"/>
<rect x="2740.32" y="2544.58" width="195.737" height="195.737" rx="97.8684" fill="#D73131"/>
<rect x="195.738" y="2740.32" width="195.737" height="195.737" rx="97.8684" fill="#A73C1C"/>
<rect x="391.475" y="2740.32" width="195.737" height="195.737" rx="97.8684" fill="#CA2C29"/>
<rect x="587.211" y="2740.32" width="195.737" height="195.737" rx="97.8684" fill="#E67914"/>
<rect x="782.949" y="2740.32" width="195.737" height="195.737" rx="97.8684" fill="#EC8621"/>
<rect x="978.686" y="2740.32" width="195.737" height="195.737" rx="97.8684" fill="#FAD23F"/>
<rect x="1174.42" y="2740.32" width="195.737" height="195.737" rx="97.8684" fill="#F2C73A"/>
<rect x="1370.16" y="2740.32" width="195.737" height="195.737" rx="97.8684" fill="#F3C83D"/>
<rect x="1565.89" y="2740.32" width="195.737" height="195.737" rx="97.8684" fill="#F4C73A"/>
<rect x="1761.63" y="2740.32" width="195.737" height="195.737" rx="97.8684" fill="#F1C838"/>
<rect x="1957.37" y="2740.32" width="195.737" height="195.737" rx="97.8684" fill="#F4CB3B"/>
<rect x="2153.11" y="2740.32" width="195.737" height="195.737" rx="97.8684" fill="#F4CA3A"/>
<rect x="2348.84" y="2740.32" width="195.737" height="195.737" rx="97.8684" fill="#ED8019"/>
<rect x="2544.58" y="2740.32" width="195.737" height="195.737" rx="97.8684" fill="#F88334"/>
<rect x="2740.32" y="2740.32" width="195.737" height="195.737" rx="97.8684" fill="#CF342F"/>
<rect x="391.475" y="2936.05" width="195.737" height="195.737" rx="97.8684" fill="#C9261F"/>
<rect x="587.211" y="2936.05" width="195.737" height="195.737" rx="97.8684" fill="#D33B2E"/>
<rect x="782.949" y="2936.05" width="195.737" height="195.737" rx="97.8684" fill="#E67B11"/>
<rect x="978.686" y="2936.05" width="195.737" height="195.737" rx="97.8684" fill="#EDA826"/>
<rect x="1174.42" y="2936.05" width="195.737" height="195.737" rx="97.8684" fill="#EEC93C"/>
<rect x="1370.16" y="2936.05" width="195.737" height="195.737" rx="97.8684" fill="#F5CC3E"/>
<rect x="1565.89" y="2936.05" width="195.737" height="195.737" rx="97.8684" fill="#F5CC3E"/>
<rect x="1761.63" y="2936.05" width="195.737" height="195.737" rx="97.8684" fill="#F3C939"/>
<rect x="1957.37" y="2936.05" width="195.737" height="195.737" rx="97.8684" fill="#F4CC39"/>
<rect x="2153.11" y="2936.05" width="195.737" height="195.737" rx="97.8684" fill="#D97E0C"/>
<rect x="2348.84" y="2936.05" width="195.737" height="195.737" rx="97.8684" fill="#EE821F"/>
<rect x="2544.58" y="2936.05" width="195.737" height="195.737" rx="97.8684" fill="#C82926"/>
<rect x="2740.32" y="2936.05" width="195.737" height="195.737" rx="97.8684" fill="#BE3120"/>
<rect x="782.949" y="3131.79" width="195.737" height="195.737" rx="97.8684" fill="#CF2B2C"/>
<rect x="978.686" y="3131.79" width="195.737" height="195.737" rx="97.8684" fill="#CA3419"/>
<rect x="1174.42" y="3131.79" width="195.737" height="195.737" rx="97.8684" fill="#E38313"/>
<rect x="1370.16" y="3131.79" width="195.737" height="195.737" rx="97.8684" fill="#F5CD38"/>
<rect x="1565.89" y="3131.79" width="195.737" height="195.737" rx="97.8684" fill="#F4D139"/>
<rect x="1761.63" y="3131.79" width="195.737" height="195.737" rx="97.8684" fill="#EDC738"/>
<rect x="1957.37" y="3131.79" width="195.737" height="195.737" rx="97.8684" fill="#F1841D"/>
<rect x="2153.11" y="3131.79" width="195.737" height="195.737" rx="97.8684" fill="#C22919"/>
<rect x="2348.84" y="3131.79" width="195.737" height="195.737" rx="97.8684" fill="#D73D31"/>
<rect x="1174.42" y="3327.53" width="195.737" height="195.737" rx="97.8684" fill="#EA4335"/>
<rect x="1370.16" y="3327.53" width="195.737" height="195.737" rx="97.8684" fill="#C83428"/>
<rect x="1565.89" y="3327.53" width="195.737" height="195.737" rx="97.8684" fill="#D3262C"/>
<rect x="1761.63" y="3327.53" width="195.737" height="195.737" rx="97.8684" fill="#C12E26"/>
<rect x="1957.37" y="3327.53" width="195.737" height="195.737" rx="97.8684" fill="#EA4335"/>
</svg>