<svg width="2937" height="3719" viewBox="0 0 2937 3719" fill="none" xmlns="http://www.w3.org/2000/svg">
<rect x="1174.42" width="195.737" height="195.737" rx="97.8684" fill="#C03926"/>
<rect x="1370.16" width="195.737" height="195.737" rx="97.8684" fill="#DE3340"/>
<rect x="978.686" y="195.737" width="195.737" height="195.737" rx="97.8684" fill="#D02D2E"/>
<rect x="1174.42" y="195.737" width="195.737" height="195.737" rx="97.8684" fill="#D43A30"/>
<rect x="782.949" y="391.474" width="195.737" height="195.737" rx="97.8684" fill="#EA4335"/>
<rect x="978.686" y="391.474" width="195.737" height="195.737" rx="97.8684" fill="#CD322E"/>
<rect x="1174.42" y="391.474" width="195.737" height="195.737" rx="97.8684" fill="#D5302E"/>
<rect x="782.949" y="587.211" width="195.737" height="195.737" rx="97.8684" fill="#CD2927"/>
<rect x="978.686" y="587.211" width="195.737" height="195.737" rx="97.8684" fill="#CD302B"/>
<rect x="1174.42" y="587.211" width="195.737" height="195.737" rx="97.8684" fill="#CE2C29"/>
<rect x="1957.37" y="587.211" width="195.737" height="195.737" rx="97.8684" fill="#C52321"/>
<rect x="782.949" y="782.947" width="195.737" height="195.737" rx="97.8684" fill="#D5302E"/>
<rect x="978.686" y="782.947" width="195.737" height="195.737" rx="97.8684" fill="#C42B26"/>
<rect x="1174.42" y="782.947" width="195.737" height="195.737" rx="97.8684" fill="#D12F2C"/>
<rect x="1370.16" y="782.947" width="195.737" height="195.737" rx="97.8684" fill="#C13826"/>
<rect x="1761.63" y="782.947" width="195.737" height="195.737" rx="97.8684" fill="#EA4335"/>
<rect x="1957.37" y="782.947" width="195.737" height="195.737" rx="97.8684" fill="#D0312B"/>
<rect x="2153.11" y="782.947" width="195.737" height="195.737" rx="97.8684" fill="#D02825"/>
<rect x="782.949" y="978.684" width="195.737" height="195.737" rx="97.8684" fill="#DE3340"/>
<rect x="978.686" y="978.684" width="195.737" height="195.737" rx="97.8684" fill="#C92E29"/>
<rect x="1174.42" y="978.684" width="195.737" height="195.737" rx="97.8684" fill="#CE2F2B"/>
<rect x="1370.16" y="978.684" width="195.737" height="195.737" rx="97.8684" fill="#CA2C29"/>
<rect x="1565.89" y="978.684" width="195.737" height="195.737" rx="97.8684" fill="#CC2D29"/>
<rect x="1761.63" y="978.684" width="195.737" height="195.737" rx="97.8684" fill="#CE2F2B"/>
<rect x="1957.37" y="978.684" width="195.737" height="195.737" rx="97.8684" fill="#CD322E"/>
<rect x="2153.11" y="978.684" width="195.737" height="195.737" rx="97.8684" fill="#D4322F"/>
<rect x="978.686" y="1174.42" width="195.737" height="195.737" rx="97.8684" fill="#D0332E"/>
<rect x="1174.42" y="1174.42" width="195.737" height="195.737" rx="97.8684" fill="#D22E2D"/>
<rect x="1370.16" y="1174.42" width="195.737" height="195.737" rx="97.8684" fill="#CB2C29"/>
<rect x="1565.89" y="1174.42" width="195.737" height="195.737" rx="97.8684" fill="#CE312C"/>
<rect x="1761.63" y="1174.42" width="195.737" height="195.737" rx="97.8684" fill="#D63B36"/>
<rect x="1957.37" y="1174.42" width="195.737" height="195.737" rx="97.8684" fill="#D0322F"/>
<rect x="2153.11" y="1174.42" width="195.737" height="195.737" rx="97.8684" fill="#D32B2B"/>
<rect x="195.738" y="1370.16" width="195.737" height="195.737" rx="97.8684" fill="#CE2927"/>
<rect x="391.475" y="1370.16" width="195.737" height="195.737" rx="97.8684" fill="#CA2D26"/>
<rect x="978.686" y="1370.16" width="195.737" height="195.737" rx="97.8684" fill="#D02E2B"/>
<rect x="1174.42" y="1370.16" width="195.737" height="195.737" rx="97.8684" fill="#CF2B2C"/>
<rect x="1370.16" y="1370.16" width="195.737" height="195.737" rx="97.8684" fill="#F18B26"/>
<rect x="1565.89" y="1370.16" width="195.737" height="195.737" rx="97.8684" fill="#D53525"/>
<rect x="1761.63" y="1370.16" width="195.737" height="195.737" rx="97.8684" fill="#D33430"/>
<rect x="1957.37" y="1370.16" width="195.737" height="195.737" rx="97.8684" fill="#CC2E2B"/>
<rect x="195.738" y="1565.89" width="195.737" height="195.737" rx="97.8684" fill="#CF2C2D"/>
<rect x="391.475" y="1565.89" width="195.737" height="195.737" rx="97.8684" fill="#CE342C"/>
<rect x="978.686" y="1565.89" width="195.737" height="195.737" rx="97.8684" fill="#CF2B29"/>
<rect x="1174.42" y="1565.89" width="195.737" height="195.737" rx="97.8684" fill="#D4312A"/>
<rect x="1370.16" y="1565.89" width="195.737" height="195.737" rx="97.8684" fill="#E9821B"/>
<rect x="1565.89" y="1565.89" width="195.737" height="195.737" rx="97.8684" fill="#E7811C"/>
<rect x="1761.63" y="1565.89" width="195.737" height="195.737" rx="97.8684" fill="#D03427"/>
<rect x="1957.37" y="1565.89" width="195.737" height="195.737" rx="97.8684" fill="#CD2E2A"/>
<rect x="2544.58" y="1565.89" width="195.737" height="195.737" rx="97.8684" fill="#D42A2D"/>
<rect y="1761.63" width="195.737" height="195.737" rx="97.8684" fill="#DE3340"/>
<rect x="195.738" y="1761.63" width="195.737" height="195.737" rx="97.8684" fill="#D63934"/>
<rect x="391.475" y="1761.63" width="195.737" height="195.737" rx="97.8684" fill="#CC312D"/>
<rect x="587.211" y="1761.63" width="195.737" height="195.737" rx="97.8684" fill="#CE2828"/>
<rect x="782.949" y="1761.63" width="195.737" height="195.737" rx="97.8684" fill="#CF322D"/>
<rect x="978.686" y="1761.63" width="195.737" height="195.737" rx="97.8684" fill="#D3342E"/>
<rect x="1174.42" y="1761.63" width="195.737" height="195.737" rx="97.8684" fill="#D4372E"/>
<rect x="1370.16" y="1761.63" width="195.737" height="195.737" rx="97.8684" fill="#ED8115"/>
<rect x="1565.89" y="1761.63" width="195.737" height="195.737" rx="97.8684" fill="#EE851A"/>
<rect x="1761.63" y="1761.63" width="195.737" height="195.737" rx="97.8684" fill="#EE8921"/>
<rect x="1957.37" y="1761.63" width="195.737" height="195.737" rx="97.8684" fill="#D73530"/>
<rect x="2153.11" y="1761.63" width="195.737" height="195.737" rx="97.8684" fill="#B63D22"/>
<rect x="2544.58" y="1761.63" width="195.737" height="195.737" rx="97.8684" fill="#D4322F"/>
<rect x="2740.32" y="1761.63" width="195.737" height="195.737" rx="97.8684" fill="#CE2927"/>
<rect y="1957.37" width="195.737" height="195.737" rx="97.8684" fill="#CA2B27"/>
<rect x="195.738" y="1957.37" width="195.737" height="195.737" rx="97.8684" fill="#CB2D2A"/>
<rect x="391.475" y="1957.37" width="195.737" height="195.737" rx="97.8684" fill="#CD302B"/>
<rect x="587.211" y="1957.37" width="195.737" height="195.737" rx="97.8684" fill="#D1342F"/>
<rect x="782.949" y="1957.37" width="195.737" height="195.737" rx="97.8684" fill="#CD322D"/>
<rect x="978.686" y="1957.37" width="195.737" height="195.737" rx="97.8684" fill="#D1342D"/>
<rect x="1174.42" y="1957.37" width="195.737" height="195.737" rx="97.8684" fill="#C22D0F"/>
<rect x="1370.16" y="1957.37" width="195.737" height="195.737" rx="97.8684" fill="#F08620"/>
<rect x="1565.89" y="1957.37" width="195.737" height="195.737" rx="97.8684" fill="#F2CF37"/>
<rect x="1761.63" y="1957.37" width="195.737" height="195.737" rx="97.8684" fill="#ED861F"/>
<rect x="1957.37" y="1957.37" width="195.737" height="195.737" rx="97.8684" fill="#D73533"/>
<rect x="2153.11" y="1957.37" width="195.737" height="195.737" rx="97.8684" fill="#D13632"/>
<rect x="2348.84" y="1957.37" width="195.737" height="195.737" rx="97.8684" fill="#CB322C"/>
<rect x="2544.58" y="1957.37" width="195.737" height="195.737" rx="97.8684" fill="#D03530"/>
<rect x="2740.32" y="1957.37" width="195.737" height="195.737" rx="97.8684" fill="#CE2927"/>
<rect y="2153.1" width="195.737" height="195.737" rx="97.8684" fill="#CB3129"/>
<rect x="195.738" y="2153.1" width="195.737" height="195.737" rx="97.8684" fill="#CE332F"/>
<rect x="391.475" y="2153.1" width="195.737" height="195.737" rx="97.8684" fill="#CA2C21"/>
<rect x="587.211" y="2153.1" width="195.737" height="195.737" rx="97.8684" fill="#C42E13"/>
<rect x="782.949" y="2153.1" width="195.737" height="195.737" rx="97.8684" fill="#D33A32"/>
<rect x="978.686" y="2153.1" width="195.737" height="195.737" rx="97.8684" fill="#D2342B"/>
<rect x="1174.42" y="2153.1" width="195.737" height="195.737" rx="97.8684" fill="#EB8219"/>
<rect x="1370.16" y="2153.1" width="195.737" height="195.737" rx="97.8684" fill="#E8811A"/>
<rect x="1565.89" y="2153.1" width="195.737" height="195.737" rx="97.8684" fill="#F3CD3A"/>
<rect x="1761.63" y="2153.1" width="195.737" height="195.737" rx="97.8684" fill="#E47815"/>
<rect x="1957.37" y="2153.1" width="195.737" height="195.737" rx="97.8684" fill="#CE3128"/>
<rect x="2153.11" y="2153.1" width="195.737" height="195.737" rx="97.8684" fill="#D0312D"/>
<rect x="2348.84" y="2153.1" width="195.737" height="195.737" rx="97.8684" fill="#CF3920"/>
<rect x="2544.58" y="2153.1" width="195.737" height="195.737" rx="97.8684" fill="#D43532"/>
<rect x="2740.32" y="2153.1" width="195.737" height="195.737" rx="97.8684" fill="#D32F2E"/>
<rect y="2348.84" width="195.737" height="195.737" rx="97.8684" fill="#EA4335"/>
<rect x="195.738" y="2348.84" width="195.737" height="195.737" rx="97.8684" fill="#CC312C"/>
<rect x="391.475" y="2348.84" width="195.737" height="195.737" rx="97.8684" fill="#ED861D"/>
<rect x="587.211" y="2348.84" width="195.737" height="195.737" rx="97.8684" fill="#EB8520"/>
<rect x="782.949" y="2348.84" width="195.737" height="195.737" rx="97.8684" fill="#EB841F"/>
<rect x="978.686" y="2348.84" width="195.737" height="195.737" rx="97.8684" fill="#E77F1C"/>
<rect x="1174.42" y="2348.84" width="195.737" height="195.737" rx="97.8684" fill="#EC851C"/>
<rect x="1370.16" y="2348.84" width="195.737" height="195.737" rx="97.8684" fill="#F1C832"/>
<rect x="1565.89" y="2348.84" width="195.737" height="195.737" rx="97.8684" fill="#F8D03D"/>
<rect x="1761.63" y="2348.84" width="195.737" height="195.737" rx="97.8684" fill="#E48119"/>
<rect x="1957.37" y="2348.84" width="195.737" height="195.737" rx="97.8684" fill="#C72F18"/>
<rect x="2153.11" y="2348.84" width="195.737" height="195.737" rx="97.8684" fill="#D53330"/>
<rect x="2348.84" y="2348.84" width="195.737" height="195.737" rx="97.8684" fill="#EC851C"/>
<rect x="2544.58" y="2348.84" width="195.737" height="195.737" rx="97.8684" fill="#D3312F"/>
<rect x="2740.32" y="2348.84" width="195.737" height="195.737" rx="97.8684" fill="#D42F2D"/>
<rect x="195.738" y="2544.58" width="195.737" height="195.737" rx="97.8684" fill="#CF302C"/>
<rect x="391.475" y="2544.58" width="195.737" height="195.737" rx="97.8684" fill="#EA801C"/>
<rect x="587.211" y="2544.58" width="195.737" height="195.737" rx="97.8684" fill="#EE8722"/>
<rect x="782.949" y="2544.58" width="195.737" height="195.737" rx="97.8684" fill="#E7821A"/>
<rect x="978.686" y="2544.58" width="195.737" height="195.737" rx="97.8684" fill="#E77D17"/>
<rect x="1174.42" y="2544.58" width="195.737" height="195.737" rx="97.8684" fill="#E67F16"/>
<rect x="1370.16" y="2544.58" width="195.737" height="195.737" rx="97.8684" fill="#F7D140"/>
<rect x="1565.89" y="2544.58" width="195.737" height="195.737" rx="97.8684" fill="#EEC932"/>
<rect x="1761.63" y="2544.58" width="195.737" height="195.737" rx="97.8684" fill="#E77E15"/>
<rect x="1957.37" y="2544.58" width="195.737" height="195.737" rx="97.8684" fill="#EC871F"/>
<rect x="2153.11" y="2544.58" width="195.737" height="195.737" rx="97.8684" fill="#EB7F1D"/>
<rect x="2348.84" y="2544.58" width="195.737" height="195.737" rx="97.8684" fill="#EB8217"/>
<rect x="2544.58" y="2544.58" width="195.737" height="195.737" rx="97.8684" fill="#D33631"/>
<rect x="2740.32" y="2544.58" width="195.737" height="195.737" rx="97.8684" fill="#D22A2A"/>
<rect y="2740.32" width="195.737" height="195.737" rx="97.8684" fill="#CC2F2A"/>
<rect x="195.738" y="2740.32" width="195.737" height="195.737" rx="97.8684" fill="#CF312E"/>
<rect x="391.475" y="2740.32" width="195.737" height="195.737" rx="97.8684" fill="#F1881B"/>
<rect x="587.211" y="2740.32" width="195.737" height="195.737" rx="97.8684" fill="#EC871D"/>
<rect x="782.949" y="2740.32" width="195.737" height="195.737" rx="97.8684" fill="#FAC335"/>
<rect x="978.686" y="2740.32" width="195.737" height="195.737" rx="97.8684" fill="#DC9313"/>
<rect x="1174.42" y="2740.32" width="195.737" height="195.737" rx="97.8684" fill="#DA8B12"/>
<rect x="1370.16" y="2740.32" width="195.737" height="195.737" rx="97.8684" fill="#F5CD38"/>
<rect x="1565.89" y="2740.32" width="195.737" height="195.737" rx="97.8684" fill="#EC8520"/>
<rect x="1761.63" y="2740.32" width="195.737" height="195.737" rx="97.8684" fill="#E8811C"/>
<rect x="1957.37" y="2740.32" width="195.737" height="195.737" rx="97.8684" fill="#EE8220"/>
<rect x="2153.11" y="2740.32" width="195.737" height="195.737" rx="97.8684" fill="#EE8623"/>
<rect x="2348.84" y="2740.32" width="195.737" height="195.737" rx="97.8684" fill="#F08920"/>
<rect x="2544.58" y="2740.32" width="195.737" height="195.737" rx="97.8684" fill="#CE302D"/>
<rect x="2740.32" y="2740.32" width="195.737" height="195.737" rx="97.8684" fill="#DE3340"/>
<rect y="2936.05" width="195.737" height="195.737" rx="97.8684" fill="#CE2927"/>
<rect x="195.738" y="2936.05" width="195.737" height="195.737" rx="97.8684" fill="#CF342F"/>
<rect x="391.475" y="2936.05" width="195.737" height="195.737" rx="97.8684" fill="#F68036"/>
<rect x="587.211" y="2936.05" width="195.737" height="195.737" rx="97.8684" fill="#EB7B19"/>
<rect x="782.949" y="2936.05" width="195.737" height="195.737" rx="97.8684" fill="#F2CC3B"/>
<rect x="978.686" y="2936.05" width="195.737" height="195.737" rx="97.8684" fill="#F8CE44"/>
<rect x="1174.42" y="2936.05" width="195.737" height="195.737" rx="97.8684" fill="#F6D041"/>
<rect x="1370.16" y="2936.05" width="195.737" height="195.737" rx="97.8684" fill="#F0C739"/>
<rect x="1565.89" y="2936.05" width="195.737" height="195.737" rx="97.8684" fill="#EB7B15"/>
<rect x="1761.63" y="2936.05" width="195.737" height="195.737" rx="97.8684" fill="#E87E1A"/>
<rect x="1957.37" y="2936.05" width="195.737" height="195.737" rx="97.8684" fill="#FDD64A"/>
<rect x="2153.11" y="2936.05" width="195.737" height="195.737" rx="97.8684" fill="#EC821C"/>
<rect x="2348.84" y="2936.05" width="195.737" height="195.737" rx="97.8684" fill="#F27E2B"/>
<rect x="2544.58" y="2936.05" width="195.737" height="195.737" rx="97.8684" fill="#CE312A"/>
<rect x="195.738" y="3131.79" width="195.737" height="195.737" rx="97.8684" fill="#CC2E25"/>
<rect x="391.475" y="3131.79" width="195.737" height="195.737" rx="97.8684" fill="#CF2D2B"/>
<rect x="587.211" y="3131.79" width="195.737" height="195.737" rx="97.8684" fill="#ED8218"/>
<rect x="782.949" y="3131.79" width="195.737" height="195.737" rx="97.8684" fill="#F4CC37"/>
<rect x="978.686" y="3131.79" width="195.737" height="195.737" rx="97.8684" fill="#F3CA3C"/>
<rect x="1174.42" y="3131.79" width="195.737" height="195.737" rx="97.8684" fill="#F6CD3F"/>
<rect x="1370.16" y="3131.79" width="195.737" height="195.737" rx="97.8684" fill="#F4C93E"/>
<rect x="1565.89" y="3131.79" width="195.737" height="195.737" rx="97.8684" fill="#ECC637"/>
<rect x="1761.63" y="3131.79" width="195.737" height="195.737" rx="97.8684" fill="#EFC936"/>
<rect x="1957.37" y="3131.79" width="195.737" height="195.737" rx="97.8684" fill="#F8CB32"/>
<rect x="2153.11" y="3131.79" width="195.737" height="195.737" rx="97.8684" fill="#EC831A"/>
<rect x="2348.84" y="3131.79" width="195.737" height="195.737" rx="97.8684" fill="#D2332D"/>
<rect x="391.475" y="3327.53" width="195.737" height="195.737" rx="97.8684" fill="#CE2927"/>
<rect x="587.211" y="3327.53" width="195.737" height="195.737" rx="97.8684" fill="#CF2D28"/>
<rect x="782.949" y="3327.53" width="195.737" height="195.737" rx="97.8684" fill="#F08C1D"/>
<rect x="978.686" y="3327.53" width="195.737" height="195.737" rx="97.8684" fill="#F2CA37"/>
<rect x="1174.42" y="3327.53" width="195.737" height="195.737" rx="97.8684" fill="#FAD141"/>
<rect x="1370.16" y="3327.53" width="195.737" height="195.737" rx="97.8684" fill="#F6CD3D"/>
<rect x="1565.89" y="3327.53" width="195.737" height="195.737" rx="97.8684" fill="#F4CC37"/>
<rect x="1761.63" y="3327.53" width="195.737" height="195.737" rx="97.8684" fill="#EDCB36"/>
<rect x="1957.37" y="3327.53" width="195.737" height="195.737" rx="97.8684" fill="#E67C18"/>
<rect x="2153.11" y="3327.53" width="195.737" height="195.737" rx="97.8684" fill="#C32522"/>
<rect x="978.686" y="3523.26" width="195.737" height="195.737" rx="97.8684" fill="#CA381F"/>
<rect x="1174.42" y="3523.26" width="195.737" height="195.737" rx="97.8684" fill="#F08324"/>
<rect x="1370.16" y="3523.26" width="195.737" height="195.737" rx="97.8684" fill="#F3891C"/>
<rect x="1565.89" y="3523.26" width="195.737" height="195.737" rx="97.8684" fill="#F37E1F"/>
<rect x="1761.63" y="3523.26" width="195.737" height="195.737" rx="97.8684" fill="#DE3340"/>
</svg>