<svg width="4001" height="1675" viewBox="0 0 4001 1675" fill="none" xmlns="http://www.w3.org/2000/svg">
<rect x="1860.91" width="93.0455" height="93.0455" rx="46.5227" fill="#573823"/>
<rect x="1953.96" width="93.0455" height="93.0455" rx="46.5227" fill="#563723"/>
<rect x="2047" width="93.0455" height="93.0455" rx="46.5227" fill="#583726"/>
<rect x="2140.04" width="93.0455" height="93.0455" rx="46.5227" fill="#5A341D"/>
<rect x="1767.86" y="93.0459" width="93.0455" height="93.0455" rx="46.5227" fill="#583927"/>
<rect x="1860.91" y="93.0459" width="93.0455" height="93.0455" rx="46.5227" fill="#503721"/>
<rect x="1953.96" y="93.0459" width="93.0455" height="93.0455" rx="46.5227" fill="#593B23"/>
<rect x="2047" y="93.0459" width="93.0455" height="93.0455" rx="46.5227" fill="#563A25"/>
<rect x="2140.04" y="93.0459" width="93.0455" height="93.0455" rx="46.5227" fill="#503A22"/>
<rect x="2233.09" y="93.0459" width="93.0455" height="93.0455" rx="46.5227" fill="#543D2B"/>
<rect x="1209.59" y="186.091" width="93.0455" height="93.0455" rx="46.5227" fill="#453617"/>
<rect x="1302.63" y="186.091" width="93.0455" height="93.0455" rx="46.5227" fill="#463525"/>
<rect x="1395.68" y="186.091" width="93.0455" height="93.0455" rx="46.5227" fill="#4F2D21"/>
<rect x="1488.73" y="186.091" width="93.0455" height="93.0455" rx="46.5227" fill="#4A3019"/>
<rect x="1581.77" y="186.091" width="93.0455" height="93.0455" rx="46.5227" fill="#493220"/>
<rect x="1674.82" y="186.091" width="93.0455" height="93.0455" rx="46.5227" fill="#573C2B"/>
<rect x="1767.86" y="186.091" width="93.0455" height="93.0455" rx="46.5227" fill="#55371D"/>
<rect x="1860.91" y="186.091" width="93.0455" height="93.0455" rx="46.5227" fill="#543924"/>
<rect x="1953.96" y="186.091" width="93.0455" height="93.0455" rx="46.5227" fill="#6D4B30"/>
<rect x="2047" y="186.091" width="93.0455" height="93.0455" rx="46.5227" fill="#563A25"/>
<rect x="2140.04" y="186.091" width="93.0455" height="93.0455" rx="46.5227" fill="#5A3724"/>
<rect x="2233.09" y="186.091" width="93.0455" height="93.0455" rx="46.5227" fill="#4F3921"/>
<rect x="2326.14" y="186.091" width="93.0455" height="93.0455" rx="46.5227" fill="#492D1F"/>
<rect x="2419.18" y="186.091" width="93.0455" height="93.0455" rx="46.5227" fill="#493224"/>
<rect x="2512.23" y="186.091" width="93.0455" height="93.0455" rx="46.5227" fill="#4C2E23"/>
<rect x="2605.27" y="186.091" width="93.0455" height="93.0455" rx="46.5227" fill="#483227"/>
<rect x="2698.32" y="186.091" width="93.0455" height="93.0455" rx="46.5227" fill="#47331B"/>
<rect x="930.455" y="279.137" width="93.0455" height="93.0455" rx="46.5227" fill="#43311D"/>
<rect x="1023.5" y="279.137" width="93.0455" height="93.0455" rx="46.5227" fill="#3C301A"/>
<rect x="1116.55" y="279.137" width="93.0455" height="93.0455" rx="46.5227" fill="#462F1D"/>
<rect x="1209.59" y="279.137" width="93.0455" height="93.0455" rx="46.5227" fill="#483322"/>
<rect x="1302.63" y="279.137" width="93.0455" height="93.0455" rx="46.5227" fill="#724F33"/>
<rect x="1395.68" y="279.137" width="93.0455" height="93.0455" rx="46.5227" fill="#492D17"/>
<rect x="1488.73" y="279.137" width="93.0455" height="93.0455" rx="46.5227" fill="#483121"/>
<rect x="1581.77" y="279.137" width="93.0455" height="93.0455" rx="46.5227" fill="#483121"/>
<rect x="1674.82" y="279.137" width="93.0455" height="93.0455" rx="46.5227" fill="#573826"/>
<rect x="1767.86" y="279.137" width="93.0455" height="93.0455" rx="46.5227" fill="#6F4D32"/>
<rect x="1860.91" y="279.137" width="93.0455" height="93.0455" rx="46.5227" fill="#563A24"/>
<rect x="1953.96" y="279.137" width="93.0455" height="93.0455" rx="46.5227" fill="#67472E"/>
<rect x="2047" y="279.137" width="93.0455" height="93.0455" rx="46.5227" fill="#543823"/>
<rect x="2140.04" y="279.137" width="93.0455" height="93.0455" rx="46.5227" fill="#573823"/>
<rect x="2233.09" y="279.137" width="93.0455" height="93.0455" rx="46.5227" fill="#54361E"/>
<rect x="2326.14" y="279.137" width="93.0455" height="93.0455" rx="46.5227" fill="#523925"/>
<rect x="2419.18" y="279.137" width="93.0455" height="93.0455" rx="46.5227" fill="#462E22"/>
<rect x="2512.23" y="279.137" width="93.0455" height="93.0455" rx="46.5227" fill="#422915"/>
<rect x="2605.27" y="279.137" width="93.0455" height="93.0455" rx="46.5227" fill="#654933"/>
<rect x="2698.32" y="279.137" width="93.0455" height="93.0455" rx="46.5227" fill="#4D321F"/>
<rect x="2791.37" y="279.137" width="93.0455" height="93.0455" rx="46.5227" fill="#4A3426"/>
<rect x="2884.41" y="279.137" width="93.0455" height="93.0455" rx="46.5227" fill="#4C3025"/>
<rect x="2977.45" y="279.137" width="93.0455" height="93.0455" rx="46.5227" fill="#472B1F"/>
<rect x="3070.5" y="279.137" width="93.0455" height="93.0455" rx="46.5227" fill="#442F1E"/>
<rect x="3163.54" y="279.137" width="93.0455" height="93.0455" rx="46.5227" fill="#472B1F"/>
<rect x="558.271" y="372.182" width="93.0455" height="93.0455" rx="46.5227" fill="#432C1C"/>
<rect x="651.318" y="372.182" width="93.0455" height="93.0455" rx="46.5227" fill="#472A26"/>
<rect x="744.363" y="372.182" width="93.0455" height="93.0455" rx="46.5227" fill="#4B2620"/>
<rect x="837.408" y="372.182" width="93.0455" height="93.0455" rx="46.5227" fill="#4A2E23"/>
<rect x="930.455" y="372.182" width="93.0455" height="93.0455" rx="46.5227" fill="#4E3224"/>
<rect x="1023.5" y="372.182" width="93.0455" height="93.0455" rx="46.5227" fill="#52321B"/>
<rect x="1116.55" y="372.182" width="93.0455" height="93.0455" rx="46.5227" fill="#422C1E"/>
<rect x="1209.59" y="372.182" width="93.0455" height="93.0455" rx="46.5227" fill="#493423"/>
<rect x="1302.63" y="372.182" width="93.0455" height="93.0455" rx="46.5227" fill="#473123"/>
<rect x="1395.68" y="372.182" width="93.0455" height="93.0455" rx="46.5227" fill="#4A3426"/>
<rect x="1488.73" y="372.182" width="93.0455" height="93.0455" rx="46.5227" fill="#493125"/>
<rect x="1581.77" y="372.182" width="93.0455" height="93.0455" rx="46.5227" fill="#473022"/>
<rect x="1674.82" y="372.182" width="93.0455" height="93.0455" rx="46.5227" fill="#583925"/>
<rect x="1767.86" y="372.182" width="93.0455" height="93.0455" rx="46.5227" fill="#5A3A21"/>
<rect x="1860.91" y="372.182" width="93.0455" height="93.0455" rx="46.5227" fill="#5B3C27"/>
<rect x="1953.96" y="372.182" width="93.0455" height="93.0455" rx="46.5227" fill="#6E4C33"/>
<rect x="2047" y="372.182" width="93.0455" height="93.0455" rx="46.5227" fill="#583927"/>
<rect x="2140.04" y="372.182" width="93.0455" height="93.0455" rx="46.5227" fill="#563722"/>
<rect x="2233.09" y="372.182" width="93.0455" height="93.0455" rx="46.5227" fill="#704B30"/>
<rect x="2326.14" y="372.182" width="93.0455" height="93.0455" rx="46.5227" fill="#563A25"/>
<rect x="2419.18" y="372.182" width="93.0455" height="93.0455" rx="46.5227" fill="#473022"/>
<rect x="2512.23" y="372.182" width="93.0455" height="93.0455" rx="46.5227" fill="#472F23"/>
<rect x="2605.27" y="372.182" width="93.0455" height="93.0455" rx="46.5227" fill="#4A3023"/>
<rect x="2698.32" y="372.182" width="93.0455" height="93.0455" rx="46.5227" fill="#4F3421"/>
<rect x="2791.37" y="372.182" width="93.0455" height="93.0455" rx="46.5227" fill="#483123"/>
<rect x="2884.41" y="372.182" width="93.0455" height="93.0455" rx="46.5227" fill="#473022"/>
<rect x="2977.45" y="372.182" width="93.0455" height="93.0455" rx="46.5227" fill="#583C27"/>
<rect x="3070.5" y="372.182" width="93.0455" height="93.0455" rx="46.5227" fill="#4D2C1D"/>
<rect x="3163.54" y="372.182" width="93.0455" height="93.0455" rx="46.5227" fill="#443224"/>
<rect x="3256.59" y="372.182" width="93.0455" height="93.0455" rx="46.5227" fill="#44281C"/>
<rect x="3349.64" y="372.182" width="93.0455" height="93.0455" rx="46.5227" fill="#43221B"/>
<rect x="3442.68" y="372.182" width="93.0455" height="93.0455" rx="46.5227" fill="#43221B"/>
<rect x="279.136" y="465.228" width="93.0455" height="93.0455" rx="46.5227" fill="#542D28"/>
<rect x="372.184" y="465.228" width="93.0455" height="93.0455" rx="46.5227" fill="#472E27"/>
<rect x="465.227" y="465.228" width="93.0455" height="93.0455" rx="46.5227" fill="#422E23"/>
<rect x="558.271" y="465.228" width="93.0455" height="93.0455" rx="46.5227" fill="#5D442E"/>
<rect x="651.318" y="465.228" width="93.0455" height="93.0455" rx="46.5227" fill="#705037"/>
<rect x="744.363" y="465.228" width="93.0455" height="93.0455" rx="46.5227" fill="#6D4E39"/>
<rect x="837.408" y="465.228" width="93.0455" height="93.0455" rx="46.5227" fill="#422F20"/>
<rect x="930.455" y="465.228" width="93.0455" height="93.0455" rx="46.5227" fill="#452E20"/>
<rect x="1023.5" y="465.228" width="93.0455" height="93.0455" rx="46.5227" fill="#6E4F33"/>
<rect x="1116.55" y="465.228" width="93.0455" height="93.0455" rx="46.5227" fill="#735233"/>
<rect x="1209.59" y="465.228" width="93.0455" height="93.0455" rx="46.5227" fill="#432D1F"/>
<rect x="1302.63" y="465.228" width="93.0455" height="93.0455" rx="46.5227" fill="#483024"/>
<rect x="1395.68" y="465.228" width="93.0455" height="93.0455" rx="46.5227" fill="#493125"/>
<rect x="1488.73" y="465.228" width="93.0455" height="93.0455" rx="46.5227" fill="#493125"/>
<rect x="1581.77" y="465.228" width="93.0455" height="93.0455" rx="46.5227" fill="#492E1D"/>
<rect x="1674.82" y="465.228" width="93.0455" height="93.0455" rx="46.5227" fill="#563A25"/>
<rect x="1767.86" y="465.228" width="93.0455" height="93.0455" rx="46.5227" fill="#553924"/>
<rect x="1860.91" y="465.228" width="93.0455" height="93.0455" rx="46.5227" fill="#563927"/>
<rect x="1953.96" y="465.228" width="93.0455" height="93.0455" rx="46.5227" fill="#593922"/>
<rect x="2047" y="465.228" width="93.0455" height="93.0455" rx="46.5227" fill="#5A3B26"/>
<rect x="2140.04" y="465.228" width="93.0455" height="93.0455" rx="46.5227" fill="#563A24"/>
<rect x="2233.09" y="465.228" width="93.0455" height="93.0455" rx="46.5227" fill="#5A3A23"/>
<rect x="2326.14" y="465.228" width="93.0455" height="93.0455" rx="46.5227" fill="#583925"/>
<rect x="2419.18" y="465.228" width="93.0455" height="93.0455" rx="46.5227" fill="#492F22"/>
<rect x="2512.23" y="465.228" width="93.0455" height="93.0455" rx="46.5227" fill="#4B3025"/>
<rect x="2605.27" y="465.228" width="93.0455" height="93.0455" rx="46.5227" fill="#4B3025"/>
<rect x="2698.32" y="465.228" width="93.0455" height="93.0455" rx="46.5227" fill="#473328"/>
<rect x="2791.37" y="465.228" width="93.0455" height="93.0455" rx="46.5227" fill="#423022"/>
<rect x="2884.41" y="465.228" width="93.0455" height="93.0455" rx="46.5227" fill="#493125"/>
<rect x="2977.45" y="465.228" width="93.0455" height="93.0455" rx="46.5227" fill="#4A2D1B"/>
<rect x="3070.5" y="465.228" width="93.0455" height="93.0455" rx="46.5227" fill="#60412C"/>
<rect x="3163.54" y="465.228" width="93.0455" height="93.0455" rx="46.5227" fill="#6C4A31"/>
<rect x="3256.59" y="465.228" width="93.0455" height="93.0455" rx="46.5227" fill="#6D4E32"/>
<rect x="3349.64" y="465.228" width="93.0455" height="93.0455" rx="46.5227" fill="#755639"/>
<rect x="3442.68" y="465.228" width="93.0455" height="93.0455" rx="46.5227" fill="#4B3120"/>
<rect x="3535.73" y="465.228" width="93.0455" height="93.0455" rx="46.5227" fill="#483024"/>
<rect x="3628.77" y="465.228" width="93.0455" height="93.0455" rx="46.5227" fill="#472B2A"/>
<rect x="3721.82" y="465.228" width="93.0455" height="93.0455" rx="46.5227" fill="#4B301D"/>
<rect x="186.092" y="558.272" width="93.0455" height="93.0455" rx="46.5227" fill="#422A20"/>
<rect x="279.136" y="558.272" width="93.0455" height="93.0455" rx="46.5227" fill="#7A5336"/>
<rect x="372.184" y="558.272" width="93.0455" height="93.0455" rx="46.5227" fill="#916E46"/>
<rect x="465.227" y="558.272" width="93.0455" height="93.0455" rx="46.5227" fill="#513416"/>
<rect x="558.271" y="558.272" width="93.0455" height="93.0455" rx="46.5227" fill="#453224"/>
<rect x="651.318" y="558.272" width="93.0455" height="93.0455" rx="46.5227" fill="#433326"/>
<rect x="744.363" y="558.272" width="93.0455" height="93.0455" rx="46.5227" fill="#442D1D"/>
<rect x="837.408" y="558.272" width="93.0455" height="93.0455" rx="46.5227" fill="#765238"/>
<rect x="930.455" y="558.272" width="93.0455" height="93.0455" rx="46.5227" fill="#6D4D34"/>
<rect x="1023.5" y="558.272" width="93.0455" height="93.0455" rx="46.5227" fill="#473020"/>
<rect x="1116.55" y="558.272" width="93.0455" height="93.0455" rx="46.5227" fill="#453224"/>
<rect x="1209.59" y="558.272" width="93.0455" height="93.0455" rx="46.5227" fill="#4B3122"/>
<rect x="1302.63" y="558.272" width="93.0455" height="93.0455" rx="46.5227" fill="#432D1F"/>
<rect x="1395.68" y="558.272" width="93.0455" height="93.0455" rx="46.5227" fill="#493125"/>
<rect x="1488.73" y="558.272" width="93.0455" height="93.0455" rx="46.5227" fill="#483224"/>
<rect x="1581.77" y="558.272" width="93.0455" height="93.0455" rx="46.5227" fill="#553924"/>
<rect x="1674.82" y="558.272" width="93.0455" height="93.0455" rx="46.5227" fill="#523620"/>
<rect x="1767.86" y="558.272" width="93.0455" height="93.0455" rx="46.5227" fill="#543520"/>
<rect x="1860.91" y="558.272" width="93.0455" height="93.0455" rx="46.5227" fill="#61412C"/>
<rect x="1953.96" y="558.272" width="93.0455" height="93.0455" rx="46.5227" fill="#553924"/>
<rect x="2047" y="558.272" width="93.0455" height="93.0455" rx="46.5227" fill="#5A3B26"/>
<rect x="2140.04" y="558.272" width="93.0455" height="93.0455" rx="46.5227" fill="#593D27"/>
<rect x="2233.09" y="558.272" width="93.0455" height="93.0455" rx="46.5227" fill="#563A25"/>
<rect x="2326.14" y="558.272" width="93.0455" height="93.0455" rx="46.5227" fill="#573824"/>
<rect x="2419.18" y="558.272" width="93.0455" height="93.0455" rx="46.5227" fill="#482E1D"/>
<rect x="2512.23" y="558.272" width="93.0455" height="93.0455" rx="46.5227" fill="#4A3226"/>
<rect x="2605.27" y="558.272" width="93.0455" height="93.0455" rx="46.5227" fill="#493125"/>
<rect x="2698.32" y="558.272" width="93.0455" height="93.0455" rx="46.5227" fill="#4A2C14"/>
<rect x="2791.37" y="558.272" width="93.0455" height="93.0455" rx="46.5227" fill="#714E30"/>
<rect x="2884.41" y="558.272" width="93.0455" height="93.0455" rx="46.5227" fill="#493325"/>
<rect x="2977.45" y="558.272" width="93.0455" height="93.0455" rx="46.5227" fill="#443123"/>
<rect x="3070.5" y="558.272" width="93.0455" height="93.0455" rx="46.5227" fill="#453224"/>
<rect x="3163.54" y="558.272" width="93.0455" height="93.0455" rx="46.5227" fill="#463426"/>
<rect x="3256.59" y="558.272" width="93.0455" height="93.0455" rx="46.5227" fill="#463324"/>
<rect x="3349.64" y="558.272" width="93.0455" height="93.0455" rx="46.5227" fill="#4A3325"/>
<rect x="3442.68" y="558.272" width="93.0455" height="93.0455" rx="46.5227" fill="#483225"/>
<rect x="3535.73" y="558.272" width="93.0455" height="93.0455" rx="46.5227" fill="#8A674B"/>
<rect x="3628.77" y="558.272" width="93.0455" height="93.0455" rx="46.5227" fill="#976C49"/>
<rect x="3721.82" y="558.272" width="93.0455" height="93.0455" rx="46.5227" fill="#443017"/>
<rect x="3814.86" y="558.272" width="93.0455" height="93.0455" rx="46.5227" fill="#4E2D1E"/>
<rect x="93.0459" y="651.318" width="93.0455" height="93.0455" rx="46.5227" fill="#4A2723"/>
<rect x="186.092" y="651.318" width="93.0455" height="93.0455" rx="46.5227" fill="#9C6C46"/>
<rect x="279.136" y="651.318" width="93.0455" height="93.0455" rx="46.5227" fill="#7F5734"/>
<rect x="372.184" y="651.318" width="93.0455" height="93.0455" rx="46.5227" fill="#714C2F"/>
<rect x="465.227" y="651.318" width="93.0455" height="93.0455" rx="46.5227" fill="#95683E"/>
<rect x="558.271" y="651.318" width="93.0455" height="93.0455" rx="46.5227" fill="#986D4A"/>
<rect x="651.318" y="651.318" width="93.0455" height="93.0455" rx="46.5227" fill="#422F21"/>
<rect x="744.363" y="651.318" width="93.0455" height="93.0455" rx="46.5227" fill="#462F1D"/>
<rect x="837.408" y="651.318" width="93.0455" height="93.0455" rx="46.5227" fill="#473123"/>
<rect x="930.455" y="651.318" width="93.0455" height="93.0455" rx="46.5227" fill="#463120"/>
<rect x="1023.5" y="651.318" width="93.0455" height="93.0455" rx="46.5227" fill="#543822"/>
<rect x="1116.55" y="651.318" width="93.0455" height="93.0455" rx="46.5227" fill="#6D4A2E"/>
<rect x="1209.59" y="651.318" width="93.0455" height="93.0455" rx="46.5227" fill="#63442F"/>
<rect x="1302.63" y="651.318" width="93.0455" height="93.0455" rx="46.5227" fill="#482F1B"/>
<rect x="1395.68" y="651.318" width="93.0455" height="93.0455" rx="46.5227" fill="#443323"/>
<rect x="1488.73" y="651.318" width="93.0455" height="93.0455" rx="46.5227" fill="#483024"/>
<rect x="1581.77" y="651.318" width="93.0455" height="93.0455" rx="46.5227" fill="#543823"/>
<rect x="1674.82" y="651.318" width="93.0455" height="93.0455" rx="46.5227" fill="#5A381F"/>
<rect x="1767.86" y="651.318" width="93.0455" height="93.0455" rx="46.5227" fill="#5A3A21"/>
<rect x="1860.91" y="651.318" width="93.0455" height="93.0455" rx="46.5227" fill="#704D2F"/>
<rect x="1953.96" y="651.318" width="93.0455" height="93.0455" rx="46.5227" fill="#553923"/>
<rect x="2047" y="651.318" width="93.0455" height="93.0455" rx="46.5227" fill="#5C402A"/>
<rect x="2140.04" y="651.318" width="93.0455" height="93.0455" rx="46.5227" fill="#553924"/>
<rect x="2233.09" y="651.318" width="93.0455" height="93.0455" rx="46.5227" fill="#583925"/>
<rect x="2326.14" y="651.318" width="93.0455" height="93.0455" rx="46.5227" fill="#583927"/>
<rect x="2419.18" y="651.318" width="93.0455" height="93.0455" rx="46.5227" fill="#503723"/>
<rect x="2512.23" y="651.318" width="93.0455" height="93.0455" rx="46.5227" fill="#493125"/>
<rect x="2605.27" y="651.318" width="93.0455" height="93.0455" rx="46.5227" fill="#493125"/>
<rect x="2698.32" y="651.318" width="93.0455" height="93.0455" rx="46.5227" fill="#473124"/>
<rect x="2791.37" y="651.318" width="93.0455" height="93.0455" rx="46.5227" fill="#472E18"/>
<rect x="2884.41" y="651.318" width="93.0455" height="93.0455" rx="46.5227" fill="#6C4B2C"/>
<rect x="2977.45" y="651.318" width="93.0455" height="93.0455" rx="46.5227" fill="#5E422C"/>
<rect x="3070.5" y="651.318" width="93.0455" height="93.0455" rx="46.5227" fill="#453221"/>
<rect x="3163.54" y="651.318" width="93.0455" height="93.0455" rx="46.5227" fill="#4C3223"/>
<rect x="3256.59" y="651.318" width="93.0455" height="93.0455" rx="46.5227" fill="#4A3429"/>
<rect x="3349.64" y="651.318" width="93.0455" height="93.0455" rx="46.5227" fill="#43291A"/>
<rect x="3442.68" y="651.318" width="93.0455" height="93.0455" rx="46.5227" fill="#9D6E44"/>
<rect x="3535.73" y="651.318" width="93.0455" height="93.0455" rx="46.5227" fill="#8D6238"/>
<rect x="3628.77" y="651.318" width="93.0455" height="93.0455" rx="46.5227" fill="#704C2C"/>
<rect x="3721.82" y="651.318" width="93.0455" height="93.0455" rx="46.5227" fill="#996C45"/>
<rect x="3814.86" y="651.318" width="93.0455" height="93.0455" rx="46.5227" fill="#8F6849"/>
<rect x="3907.91" y="651.318" width="93.0455" height="93.0455" rx="46.5227" fill="#482B25"/>
<rect x="93.0459" y="744.363" width="93.0455" height="93.0455" rx="46.5227" fill="#592F23"/>
<rect x="186.092" y="744.363" width="93.0455" height="93.0455" rx="46.5227" fill="#754D29"/>
<rect x="279.136" y="744.363" width="93.0455" height="93.0455" rx="46.5227" fill="#90643F"/>
<rect x="372.184" y="744.363" width="93.0455" height="93.0455" rx="46.5227" fill="#966C44"/>
<rect x="465.227" y="744.363" width="93.0455" height="93.0455" rx="46.5227" fill="#6D482D"/>
<rect x="558.271" y="744.363" width="93.0455" height="93.0455" rx="46.5227" fill="#A06A44"/>
<rect x="651.318" y="744.363" width="93.0455" height="93.0455" rx="46.5227" fill="#9A7151"/>
<rect x="744.363" y="744.363" width="93.0455" height="93.0455" rx="46.5227" fill="#433022"/>
<rect x="837.408" y="744.363" width="93.0455" height="93.0455" rx="46.5227" fill="#492F20"/>
<rect x="930.455" y="744.363" width="93.0455" height="93.0455" rx="46.5227" fill="#6F4F36"/>
<rect x="1023.5" y="744.363" width="93.0455" height="93.0455" rx="46.5227" fill="#442A19"/>
<rect x="1116.55" y="744.363" width="93.0455" height="93.0455" rx="46.5227" fill="#4B3122"/>
<rect x="1209.59" y="744.363" width="93.0455" height="93.0455" rx="46.5227" fill="#463227"/>
<rect x="1302.63" y="744.363" width="93.0455" height="93.0455" rx="46.5227" fill="#473124"/>
<rect x="1395.68" y="744.363" width="93.0455" height="93.0455" rx="46.5227" fill="#4C3225"/>
<rect x="1488.73" y="744.363" width="93.0455" height="93.0455" rx="46.5227" fill="#483123"/>
<rect x="1581.77" y="744.363" width="93.0455" height="93.0455" rx="46.5227" fill="#573824"/>
<rect x="1674.82" y="744.363" width="93.0455" height="93.0455" rx="46.5227" fill="#5A3721"/>
<rect x="1767.86" y="744.363" width="93.0455" height="93.0455" rx="46.5227" fill="#593B23"/>
<rect x="1860.91" y="744.363" width="93.0455" height="93.0455" rx="46.5227" fill="#755035"/>
<rect x="1953.96" y="744.363" width="93.0455" height="93.0455" rx="46.5227" fill="#583925"/>
<rect x="2047" y="744.363" width="93.0455" height="93.0455" rx="46.5227" fill="#553622"/>
<rect x="2140.04" y="744.363" width="93.0455" height="93.0455" rx="46.5227" fill="#583C27"/>
<rect x="2233.09" y="744.363" width="93.0455" height="93.0455" rx="46.5227" fill="#573824"/>
<rect x="2326.14" y="744.363" width="93.0455" height="93.0455" rx="46.5227" fill="#5A3926"/>
<rect x="2419.18" y="744.363" width="93.0455" height="93.0455" rx="46.5227" fill="#573B26"/>
<rect x="2512.23" y="744.363" width="93.0455" height="93.0455" rx="46.5227" fill="#472F23"/>
<rect x="2605.27" y="744.363" width="93.0455" height="93.0455" rx="46.5227" fill="#4B3025"/>
<rect x="2698.32" y="744.363" width="93.0455" height="93.0455" rx="46.5227" fill="#4B3025"/>
<rect x="2791.37" y="744.363" width="93.0455" height="93.0455" rx="46.5227" fill="#473124"/>
<rect x="2884.41" y="744.363" width="93.0455" height="93.0455" rx="46.5227" fill="#483224"/>
<rect x="2977.45" y="744.363" width="93.0455" height="93.0455" rx="46.5227" fill="#4D331C"/>
<rect x="3070.5" y="744.363" width="93.0455" height="93.0455" rx="46.5227" fill="#745135"/>
<rect x="3163.54" y="744.363" width="93.0455" height="93.0455" rx="46.5227" fill="#4A3021"/>
<rect x="3256.59" y="744.363" width="93.0455" height="93.0455" rx="46.5227" fill="#452F21"/>
<rect x="3349.64" y="744.363" width="93.0455" height="93.0455" rx="46.5227" fill="#9D683E"/>
<rect x="3442.68" y="744.363" width="93.0455" height="93.0455" rx="46.5227" fill="#986D43"/>
<rect x="3535.73" y="744.363" width="93.0455" height="93.0455" rx="46.5227" fill="#754D34"/>
<rect x="3628.77" y="744.363" width="93.0455" height="93.0455" rx="46.5227" fill="#966642"/>
<rect x="3721.82" y="744.363" width="93.0455" height="93.0455" rx="46.5227" fill="#6E4527"/>
<rect x="3814.86" y="744.363" width="93.0455" height="93.0455" rx="46.5227" fill="#A26E49"/>
<rect x="3907.91" y="744.363" width="93.0455" height="93.0455" rx="46.5227" fill="#502C1C"/>
<rect y="837.409" width="93.0455" height="93.0455" rx="46.5227" fill="#44331F"/>
<rect x="93.0459" y="837.409" width="93.0455" height="93.0455" rx="46.5227" fill="#9A6C4B"/>
<rect x="186.092" y="837.409" width="93.0455" height="93.0455" rx="46.5227" fill="#6F4C2E"/>
<rect x="279.136" y="837.409" width="93.0455" height="93.0455" rx="46.5227" fill="#704523"/>
<rect x="372.184" y="837.409" width="93.0455" height="93.0455" rx="46.5227" fill="#A16C42"/>
<rect x="465.227" y="837.409" width="93.0455" height="93.0455" rx="46.5227" fill="#A0704A"/>
<rect x="558.271" y="837.409" width="93.0455" height="93.0455" rx="46.5227" fill="#714D33"/>
<rect x="651.318" y="837.409" width="93.0455" height="93.0455" rx="46.5227" fill="#9D6D3F"/>
<rect x="744.363" y="837.409" width="93.0455" height="93.0455" rx="46.5227" fill="#422716"/>
<rect x="837.408" y="837.409" width="93.0455" height="93.0455" rx="46.5227" fill="#473022"/>
<rect x="930.455" y="837.409" width="93.0455" height="93.0455" rx="46.5227" fill="#4C2C17"/>
<rect x="1023.5" y="837.409" width="93.0455" height="93.0455" rx="46.5227" fill="#6D4D36"/>
<rect x="1116.55" y="837.409" width="93.0455" height="93.0455" rx="46.5227" fill="#432E1D"/>
<rect x="1209.59" y="837.409" width="93.0455" height="93.0455" rx="46.5227" fill="#4E2D26"/>
<rect x="1302.63" y="837.409" width="93.0455" height="93.0455" rx="46.5227" fill="#483129"/>
<rect x="1395.68" y="837.409" width="93.0455" height="93.0455" rx="46.5227" fill="#4A3023"/>
<rect x="1488.73" y="837.409" width="93.0455" height="93.0455" rx="46.5227" fill="#433127"/>
<rect x="1581.77" y="837.409" width="93.0455" height="93.0455" rx="46.5227" fill="#523D2A"/>
<rect x="1674.82" y="837.409" width="93.0455" height="93.0455" rx="46.5227" fill="#573722"/>
<rect x="1767.86" y="837.409" width="93.0455" height="93.0455" rx="46.5227" fill="#58381F"/>
<rect x="1860.91" y="837.409" width="93.0455" height="93.0455" rx="46.5227" fill="#583A1E"/>
<rect x="1953.96" y="837.409" width="93.0455" height="93.0455" rx="46.5227" fill="#583A22"/>
<rect x="2047" y="837.409" width="93.0455" height="93.0455" rx="46.5227" fill="#573826"/>
<rect x="2140.04" y="837.409" width="93.0455" height="93.0455" rx="46.5227" fill="#573728"/>
<rect x="2233.09" y="837.409" width="93.0455" height="93.0455" rx="46.5227" fill="#5A3B27"/>
<rect x="2326.14" y="837.409" width="93.0455" height="93.0455" rx="46.5227" fill="#593A25"/>
<rect x="2419.18" y="837.409" width="93.0455" height="93.0455" rx="46.5227" fill="#5A3928"/>
<rect x="2512.23" y="837.409" width="93.0455" height="93.0455" rx="46.5227" fill="#4C3223"/>
<rect x="2605.27" y="837.409" width="93.0455" height="93.0455" rx="46.5227" fill="#4B301F"/>
<rect x="2698.32" y="837.409" width="93.0455" height="93.0455" rx="46.5227" fill="#4B3025"/>
<rect x="2791.37" y="837.409" width="93.0455" height="93.0455" rx="46.5227" fill="#4B2E26"/>
<rect x="2884.41" y="837.409" width="93.0455" height="93.0455" rx="46.5227" fill="#44321E"/>
<rect x="2977.45" y="837.409" width="93.0455" height="93.0455" rx="46.5227" fill="#4B2E1C"/>
<rect x="3070.5" y="837.409" width="93.0455" height="93.0455" rx="46.5227" fill="#452B1C"/>
<rect x="3163.54" y="837.409" width="93.0455" height="93.0455" rx="46.5227" fill="#473124"/>
<rect x="3256.59" y="837.409" width="93.0455" height="93.0455" rx="46.5227" fill="#775235"/>
<rect x="3349.64" y="837.409" width="93.0455" height="93.0455" rx="46.5227" fill="#986840"/>
<rect x="3442.68" y="837.409" width="93.0455" height="93.0455" rx="46.5227" fill="#724E2E"/>
<rect x="3535.73" y="837.409" width="93.0455" height="93.0455" rx="46.5227" fill="#A37045"/>
<rect x="3628.77" y="837.409" width="93.0455" height="93.0455" rx="46.5227" fill="#956946"/>
<rect x="3721.82" y="837.409" width="93.0455" height="93.0455" rx="46.5227" fill="#9E704E"/>
<rect x="3814.86" y="837.409" width="93.0455" height="93.0455" rx="46.5227" fill="#724B2E"/>
<rect x="3907.91" y="837.409" width="93.0455" height="93.0455" rx="46.5227" fill="#4E2F1B"/>
<rect y="930.455" width="93.0455" height="93.0455" rx="46.5227" fill="#44331F"/>
<rect x="93.0459" y="930.455" width="93.0455" height="93.0455" rx="46.5227" fill="#876343"/>
<rect x="186.092" y="930.455" width="93.0455" height="93.0455" rx="46.5227" fill="#704824"/>
<rect x="279.136" y="930.455" width="93.0455" height="93.0455" rx="46.5227" fill="#6F4A30"/>
<rect x="372.184" y="930.455" width="93.0455" height="93.0455" rx="46.5227" fill="#9C6D41"/>
<rect x="465.227" y="930.455" width="93.0455" height="93.0455" rx="46.5227" fill="#9E6E40"/>
<rect x="558.271" y="930.455" width="93.0455" height="93.0455" rx="46.5227" fill="#6F4626"/>
<rect x="651.318" y="930.455" width="93.0455" height="93.0455" rx="46.5227" fill="#9E6F45"/>
<rect x="744.363" y="930.455" width="93.0455" height="93.0455" rx="46.5227" fill="#533118"/>
<rect x="837.408" y="930.455" width="93.0455" height="93.0455" rx="46.5227" fill="#4A3021"/>
<rect x="930.455" y="930.455" width="93.0455" height="93.0455" rx="46.5227" fill="#452B1A"/>
<rect x="1023.5" y="930.455" width="93.0455" height="93.0455" rx="46.5227" fill="#493423"/>
<rect x="1116.55" y="930.455" width="93.0455" height="93.0455" rx="46.5227" fill="#443122"/>
<rect x="1209.59" y="930.455" width="93.0455" height="93.0455" rx="46.5227" fill="#432F26"/>
<rect x="1302.63" y="930.455" width="93.0455" height="93.0455" rx="46.5227" fill="#4D2D22"/>
<rect x="1395.68" y="930.455" width="93.0455" height="93.0455" rx="46.5227" fill="#4D2D22"/>
<rect x="1488.73" y="930.455" width="93.0455" height="93.0455" rx="46.5227" fill="#563C23"/>
<rect x="1581.77" y="930.455" width="93.0455" height="93.0455" rx="46.5227" fill="#563C23"/>
<rect x="1674.82" y="930.455" width="93.0455" height="93.0455" rx="46.5227" fill="#553923"/>
<rect x="1767.86" y="930.455" width="93.0455" height="93.0455" rx="46.5227" fill="#5A381D"/>
<rect x="1860.91" y="930.455" width="93.0455" height="93.0455" rx="46.5227" fill="#9C6C46"/>
<rect x="1953.96" y="930.455" width="93.0455" height="93.0455" rx="46.5227" fill="#9C6D41"/>
<rect x="2047" y="930.455" width="93.0455" height="93.0455" rx="46.5227" fill="#9A6F42"/>
<rect x="2140.04" y="930.455" width="93.0455" height="93.0455" rx="46.5227" fill="#976D43"/>
<rect x="2233.09" y="930.455" width="93.0455" height="93.0455" rx="46.5227" fill="#6C4828"/>
<rect x="2326.14" y="930.455" width="93.0455" height="93.0455" rx="46.5227" fill="#573B26"/>
<rect x="2419.18" y="930.455" width="93.0455" height="93.0455" rx="46.5227" fill="#5A3B27"/>
<rect x="2605.27" y="930.455" width="93.0455" height="93.0455" rx="46.5227" fill="#423022"/>
<rect x="2698.32" y="930.455" width="93.0455" height="93.0455" rx="46.5227" fill="#463324"/>
<rect x="2791.37" y="930.455" width="93.0455" height="93.0455" rx="46.5227" fill="#4B2F23"/>
<rect x="2884.41" y="930.455" width="93.0455" height="93.0455" rx="46.5227" fill="#453126"/>
<rect x="2977.45" y="930.455" width="93.0455" height="93.0455" rx="46.5227" fill="#432D18"/>
<rect x="3070.5" y="930.455" width="93.0455" height="93.0455" rx="46.5227" fill="#462D19"/>
<rect x="3163.54" y="930.455" width="93.0455" height="93.0455" rx="46.5227" fill="#443122"/>
<rect x="3256.59" y="930.455" width="93.0455" height="93.0455" rx="46.5227" fill="#9F754D"/>
<rect x="3349.64" y="930.455" width="93.0455" height="93.0455" rx="46.5227" fill="#774F2C"/>
<rect x="3442.68" y="930.455" width="93.0455" height="93.0455" rx="46.5227" fill="#9C6B43"/>
<rect x="3535.73" y="930.455" width="93.0455" height="93.0455" rx="46.5227" fill="#976C49"/>
<rect x="3628.77" y="930.455" width="93.0455" height="93.0455" rx="46.5227" fill="#9C6F4E"/>
<rect x="3721.82" y="930.455" width="93.0455" height="93.0455" rx="46.5227" fill="#9E724B"/>
<rect x="3814.86" y="930.455" width="93.0455" height="93.0455" rx="46.5227" fill="#6F4B29"/>
<rect x="3907.91" y="930.455" width="93.0455" height="93.0455" rx="46.5227" fill="#4C301B"/>
<rect x="93.0459" y="1023.5" width="93.0455" height="93.0455" rx="46.5227" fill="#412519"/>
<rect x="186.092" y="1023.5" width="93.0455" height="93.0455" rx="46.5227" fill="#9C6F48"/>
<rect x="279.136" y="1023.5" width="93.0455" height="93.0455" rx="46.5227" fill="#825737"/>
<rect x="372.184" y="1023.5" width="93.0455" height="93.0455" rx="46.5227" fill="#8A5E31"/>
<rect x="465.227" y="1023.5" width="93.0455" height="93.0455" rx="46.5227" fill="#9B6F42"/>
<rect x="558.271" y="1023.5" width="93.0455" height="93.0455" rx="46.5227" fill="#6D4A2A"/>
<rect x="651.318" y="1023.5" width="93.0455" height="93.0455" rx="46.5227" fill="#A06F46"/>
<rect x="744.363" y="1023.5" width="93.0455" height="93.0455" rx="46.5227" fill="#4D2B12"/>
<rect x="837.408" y="1023.5" width="93.0455" height="93.0455" rx="46.5227" fill="#4B3122"/>
<rect x="930.455" y="1023.5" width="93.0455" height="93.0455" rx="46.5227" fill="#45301F"/>
<rect x="1023.5" y="1023.5" width="93.0455" height="93.0455" rx="46.5227" fill="#462F21"/>
<rect x="1116.55" y="1023.5" width="93.0455" height="93.0455" rx="46.5227" fill="#493222"/>
<rect x="1209.59" y="1023.5" width="93.0455" height="93.0455" rx="46.5227" fill="#41321F"/>
<rect x="1488.73" y="1023.5" width="93.0455" height="93.0455" rx="46.5227" fill="#522C1F"/>
<rect x="1581.77" y="1023.5" width="93.0455" height="93.0455" rx="46.5227" fill="#503B26"/>
<rect x="1674.82" y="1023.5" width="93.0455" height="93.0455" rx="46.5227" fill="#724B2E"/>
<rect x="1767.86" y="1023.5" width="93.0455" height="93.0455" rx="46.5227" fill="#A06D42"/>
<rect x="1860.91" y="1023.5" width="93.0455" height="93.0455" rx="46.5227" fill="#724B2C"/>
<rect x="1953.96" y="1023.5" width="93.0455" height="93.0455" rx="46.5227" fill="#6E4C30"/>
<rect x="2047" y="1023.5" width="93.0455" height="93.0455" rx="46.5227" fill="#6E5131"/>
<rect x="2140.04" y="1023.5" width="93.0455" height="93.0455" rx="46.5227" fill="#724D33"/>
<rect x="2233.09" y="1023.5" width="93.0455" height="93.0455" rx="46.5227" fill="#90653B"/>
<rect x="2326.14" y="1023.5" width="93.0455" height="93.0455" rx="46.5227" fill="#946C48"/>
<rect x="2419.18" y="1023.5" width="93.0455" height="93.0455" rx="46.5227" fill="#583726"/>
<rect x="2791.37" y="1023.5" width="93.0455" height="93.0455" rx="46.5227" fill="#54332A"/>
<rect x="2884.41" y="1023.5" width="93.0455" height="93.0455" rx="46.5227" fill="#433421"/>
<rect x="2977.45" y="1023.5" width="93.0455" height="93.0455" rx="46.5227" fill="#473020"/>
<rect x="3070.5" y="1023.5" width="93.0455" height="93.0455" rx="46.5227" fill="#473022"/>
<rect x="3163.54" y="1023.5" width="93.0455" height="93.0455" rx="46.5227" fill="#47332A"/>
<rect x="3256.59" y="1023.5" width="93.0455" height="93.0455" rx="46.5227" fill="#9E714A"/>
<rect x="3349.64" y="1023.5" width="93.0455" height="93.0455" rx="46.5227" fill="#9C6C44"/>
<rect x="3442.68" y="1023.5" width="93.0455" height="93.0455" rx="46.5227" fill="#794E2C"/>
<rect x="3535.73" y="1023.5" width="93.0455" height="93.0455" rx="46.5227" fill="#986C47"/>
<rect x="3628.77" y="1023.5" width="93.0455" height="93.0455" rx="46.5227" fill="#926440"/>
<rect x="3721.82" y="1023.5" width="93.0455" height="93.0455" rx="46.5227" fill="#A46F43"/>
<rect x="3814.86" y="1023.5" width="93.0455" height="93.0455" rx="46.5227" fill="#9C724A"/>
<rect x="3907.91" y="1023.5" width="93.0455" height="93.0455" rx="46.5227" fill="#473028"/>
<rect x="93.0459" y="1116.55" width="93.0455" height="93.0455" rx="46.5227" fill="#4E3226"/>
<rect x="186.092" y="1116.55" width="93.0455" height="93.0455" rx="46.5227" fill="#78543C"/>
<rect x="279.136" y="1116.55" width="93.0455" height="93.0455" rx="46.5227" fill="#A17047"/>
<rect x="372.184" y="1116.55" width="93.0455" height="93.0455" rx="46.5227" fill="#7D5532"/>
<rect x="465.227" y="1116.55" width="93.0455" height="93.0455" rx="46.5227" fill="#744F32"/>
<rect x="558.271" y="1116.55" width="93.0455" height="93.0455" rx="46.5227" fill="#9E704C"/>
<rect x="651.318" y="1116.55" width="93.0455" height="93.0455" rx="46.5227" fill="#986C49"/>
<rect x="744.363" y="1116.55" width="93.0455" height="93.0455" rx="46.5227" fill="#432E1D"/>
<rect x="837.408" y="1116.55" width="93.0455" height="93.0455" rx="46.5227" fill="#483322"/>
<rect x="930.455" y="1116.55" width="93.0455" height="93.0455" rx="46.5227" fill="#4A2E23"/>
<rect x="1023.5" y="1116.55" width="93.0455" height="93.0455" rx="46.5227" fill="#422A20"/>
<rect x="1488.73" y="1116.55" width="93.0455" height="93.0455" rx="46.5227" fill="#583426"/>
<rect x="1581.77" y="1116.55" width="93.0455" height="93.0455" rx="46.5227" fill="#523317"/>
<rect x="1674.82" y="1116.55" width="93.0455" height="93.0455" rx="46.5227" fill="#8A5C3A"/>
<rect x="1767.86" y="1116.55" width="93.0455" height="93.0455" rx="46.5227" fill="#6B4423"/>
<rect x="1860.91" y="1116.55" width="93.0455" height="93.0455" rx="46.5227" fill="#875B36"/>
<rect x="1953.96" y="1116.55" width="93.0455" height="93.0455" rx="46.5227" fill="#9C6C44"/>
<rect x="2047" y="1116.55" width="93.0455" height="93.0455" rx="46.5227" fill="#9D6941"/>
<rect x="2140.04" y="1116.55" width="93.0455" height="93.0455" rx="46.5227" fill="#9F6B43"/>
<rect x="2233.09" y="1116.55" width="93.0455" height="93.0455" rx="46.5227" fill="#7E5535"/>
<rect x="2326.14" y="1116.55" width="93.0455" height="93.0455" rx="46.5227" fill="#946A42"/>
<rect x="2419.18" y="1116.55" width="93.0455" height="93.0455" rx="46.5227" fill="#57391D"/>
<rect x="2977.45" y="1116.55" width="93.0455" height="93.0455" rx="46.5227" fill="#43251D"/>
<rect x="3070.5" y="1116.55" width="93.0455" height="93.0455" rx="46.5227" fill="#423620"/>
<rect x="3163.54" y="1116.55" width="93.0455" height="93.0455" rx="46.5227" fill="#4E3121"/>
<rect x="3256.59" y="1116.55" width="93.0455" height="93.0455" rx="46.5227" fill="#49331E"/>
<rect x="3349.64" y="1116.55" width="93.0455" height="93.0455" rx="46.5227" fill="#9B6C42"/>
<rect x="3442.68" y="1116.55" width="93.0455" height="93.0455" rx="46.5227" fill="#8A5F3C"/>
<rect x="3535.73" y="1116.55" width="93.0455" height="93.0455" rx="46.5227" fill="#704D31"/>
<rect x="3628.77" y="1116.55" width="93.0455" height="93.0455" rx="46.5227" fill="#704B2E"/>
<rect x="3721.82" y="1116.55" width="93.0455" height="93.0455" rx="46.5227" fill="#6F4E2B"/>
<rect x="3814.86" y="1116.55" width="93.0455" height="93.0455" rx="46.5227" fill="#5B3522"/>
<rect x="3907.91" y="1116.55" width="93.0455" height="93.0455" rx="46.5227" fill="#4B2B20"/>
<rect x="186.092" y="1209.59" width="93.0455" height="93.0455" rx="46.5227" fill="#442F1E"/>
<rect x="279.136" y="1209.59" width="93.0455" height="93.0455" rx="46.5227" fill="#6A4A35"/>
<rect x="372.184" y="1209.59" width="93.0455" height="93.0455" rx="46.5227" fill="#815532"/>
<rect x="465.227" y="1209.59" width="93.0455" height="93.0455" rx="46.5227" fill="#82522E"/>
<rect x="558.271" y="1209.59" width="93.0455" height="93.0455" rx="46.5227" fill="#714A2D"/>
<rect x="651.318" y="1209.59" width="93.0455" height="93.0455" rx="46.5227" fill="#4A2E20"/>
<rect x="744.363" y="1209.59" width="93.0455" height="93.0455" rx="46.5227" fill="#442F1E"/>
<rect x="837.408" y="1209.59" width="93.0455" height="93.0455" rx="46.5227" fill="#422A20"/>
<rect x="1488.73" y="1209.59" width="93.0455" height="93.0455" rx="46.5227" fill="#522C1F"/>
<rect x="1581.77" y="1209.59" width="93.0455" height="93.0455" rx="46.5227" fill="#9F6648"/>
<rect x="1674.82" y="1209.59" width="93.0455" height="93.0455" rx="46.5227" fill="#976A41"/>
<rect x="1767.86" y="1209.59" width="93.0455" height="93.0455" rx="46.5227" fill="#6E492F"/>
<rect x="1860.91" y="1209.59" width="93.0455" height="93.0455" rx="46.5227" fill="#9B683B"/>
<rect x="1953.96" y="1209.59" width="93.0455" height="93.0455" rx="46.5227" fill="#6F4A2D"/>
<rect x="2047" y="1209.59" width="93.0455" height="93.0455" rx="46.5227" fill="#754C2E"/>
<rect x="2140.04" y="1209.59" width="93.0455" height="93.0455" rx="46.5227" fill="#714E32"/>
<rect x="2233.09" y="1209.59" width="93.0455" height="93.0455" rx="46.5227" fill="#A17047"/>
<rect x="2326.14" y="1209.59" width="93.0455" height="93.0455" rx="46.5227" fill="#734F2D"/>
<rect x="2419.18" y="1209.59" width="93.0455" height="93.0455" rx="46.5227" fill="#634020"/>
<rect x="3163.54" y="1209.59" width="93.0455" height="93.0455" rx="46.5227" fill="#432712"/>
<rect x="3256.59" y="1209.59" width="93.0455" height="93.0455" rx="46.5227" fill="#432D20"/>
<rect x="3349.64" y="1209.59" width="93.0455" height="93.0455" rx="46.5227" fill="#4F2F1A"/>
<rect x="3442.68" y="1209.59" width="93.0455" height="93.0455" rx="46.5227" fill="#794E2C"/>
<rect x="3535.73" y="1209.59" width="93.0455" height="93.0455" rx="46.5227" fill="#8D5D37"/>
<rect x="3628.77" y="1209.59" width="93.0455" height="93.0455" rx="46.5227" fill="#855531"/>
<rect x="3721.82" y="1209.59" width="93.0455" height="93.0455" rx="46.5227" fill="#52311E"/>
<rect x="3814.86" y="1209.59" width="93.0455" height="93.0455" rx="46.5227" fill="#3C2D1A"/>
<rect x="279.136" y="1302.64" width="93.0455" height="93.0455" rx="46.5227" fill="#4A311B"/>
<rect x="372.184" y="1302.64" width="93.0455" height="93.0455" rx="46.5227" fill="#502B22"/>
<rect x="465.227" y="1302.64" width="93.0455" height="93.0455" rx="46.5227" fill="#492F22"/>
<rect x="558.271" y="1302.64" width="93.0455" height="93.0455" rx="46.5227" fill="#4D2D22"/>
<rect x="651.318" y="1302.64" width="93.0455" height="93.0455" rx="46.5227" fill="#4D2D22"/>
<rect x="1581.77" y="1302.64" width="93.0455" height="93.0455" rx="46.5227" fill="#6C482E"/>
<rect x="1674.82" y="1302.64" width="93.0455" height="93.0455" rx="46.5227" fill="#926442"/>
<rect x="1767.86" y="1302.64" width="93.0455" height="93.0455" rx="46.5227" fill="#714E32"/>
<rect x="1860.91" y="1302.64" width="93.0455" height="93.0455" rx="46.5227" fill="#966640"/>
<rect x="1953.96" y="1302.64" width="93.0455" height="93.0455" rx="46.5227" fill="#9B6A42"/>
<rect x="2047" y="1302.64" width="93.0455" height="93.0455" rx="46.5227" fill="#9E6D42"/>
<rect x="2140.04" y="1302.64" width="93.0455" height="93.0455" rx="46.5227" fill="#6B4629"/>
<rect x="2233.09" y="1302.64" width="93.0455" height="93.0455" rx="46.5227" fill="#9B6B43"/>
<rect x="2326.14" y="1302.64" width="93.0455" height="93.0455" rx="46.5227" fill="#734E33"/>
<rect x="2419.18" y="1302.64" width="93.0455" height="93.0455" rx="46.5227" fill="#5B391D"/>
<rect x="3349.64" y="1302.64" width="93.0455" height="93.0455" rx="46.5227" fill="#453119"/>
<rect x="3442.68" y="1302.64" width="93.0455" height="93.0455" rx="46.5227" fill="#4D3020"/>
<rect x="3535.73" y="1302.64" width="93.0455" height="93.0455" rx="46.5227" fill="#4A2B28"/>
<rect x="3628.77" y="1302.64" width="93.0455" height="93.0455" rx="46.5227" fill="#4B2B20"/>
<rect x="3721.82" y="1302.64" width="93.0455" height="93.0455" rx="46.5227" fill="#4B2B20"/>
<rect x="1581.77" y="1395.68" width="93.0455" height="93.0455" rx="46.5227" fill="#523621"/>
<rect x="1674.82" y="1395.68" width="93.0455" height="93.0455" rx="46.5227" fill="#755131"/>
<rect x="1767.86" y="1395.68" width="93.0455" height="93.0455" rx="46.5227" fill="#9C6D43"/>
<rect x="1860.91" y="1395.68" width="93.0455" height="93.0455" rx="46.5227" fill="#6E492C"/>
<rect x="1953.96" y="1395.68" width="93.0455" height="93.0455" rx="46.5227" fill="#6F4C2E"/>
<rect x="2047" y="1395.68" width="93.0455" height="93.0455" rx="46.5227" fill="#6E4B2D"/>
<rect x="2140.04" y="1395.68" width="93.0455" height="93.0455" rx="46.5227" fill="#7D522F"/>
<rect x="2233.09" y="1395.68" width="93.0455" height="93.0455" rx="46.5227" fill="#A26F44"/>
<rect x="2326.14" y="1395.68" width="93.0455" height="93.0455" rx="46.5227" fill="#704B31"/>
<rect x="2419.18" y="1395.68" width="93.0455" height="93.0455" rx="46.5227" fill="#543324"/>
<rect x="1674.82" y="1488.73" width="93.0455" height="93.0455" rx="46.5227" fill="#55392B"/>
<rect x="1767.86" y="1488.73" width="93.0455" height="93.0455" rx="46.5227" fill="#4F2D14"/>
<rect x="1860.91" y="1488.73" width="93.0455" height="93.0455" rx="46.5227" fill="#9B6C40"/>
<rect x="1953.96" y="1488.73" width="93.0455" height="93.0455" rx="46.5227" fill="#9B7043"/>
<rect x="2047" y="1488.73" width="93.0455" height="93.0455" rx="46.5227" fill="#A26D43"/>
<rect x="2140.04" y="1488.73" width="93.0455" height="93.0455" rx="46.5227" fill="#986B42"/>
<rect x="2233.09" y="1488.73" width="93.0455" height="93.0455" rx="46.5227" fill="#59351F"/>
<rect x="2326.14" y="1488.73" width="93.0455" height="93.0455" rx="46.5227" fill="#5C3621"/>
<rect x="1860.91" y="1581.77" width="93.0455" height="93.0455" rx="46.5227" fill="#55392B"/>
<rect x="1953.96" y="1581.77" width="93.0455" height="93.0455" rx="46.5227" fill="#54341B"/>
<rect x="2047" y="1581.77" width="93.0455" height="93.0455" rx="46.5227" fill="#53371F"/>
<rect x="2140.04" y="1581.77" width="93.0455" height="93.0455" rx="46.5227" fill="#5C3621"/>
</svg>
